<?xml version="1.0" standalone="no"?>
<!DOCTYPE svg PUBLIC "-//W3C//DTD SVG 1.1//EN" "http://www.w3.org/Graphics/SVG/1.1/DTD/svg11.dtd" >
<svg xmlns="http://www.w3.org/2000/svg">
<metadata></metadata>
<defs>
<font id="sukhumvit_setmedium" horiz-adv-x="0" >
<font-face units-per-em="2048" ascent="1638" descent="-410" />
<missing-glyph horiz-adv-x="578" />
<glyph unicode="&#xe2f;&#xe2f;" horiz-adv-x="1720" d="M93 1212v84h194v-86q0 -150 56.5 -226.5t181.5 -76.5q67 0 134.5 31.5t121.5 81t88 113.5t34 128v35h190v-386q51 22 98 60.5t84 87t58 100.5t21 103v35h190v-1296h-199v967q-33 -69 -100.5 -122.5t-151.5 -89.5v-755h-199v967q-23 -48 -66.5 -89t-97.5 -69.5t-118 -43.5 t-131 -15q-106 0 -180 34.5t-120.5 96t-67 146t-20.5 185.5z" />
<glyph unicode="&#xe4f;&#x22;" horiz-adv-x="1263" d="M139 556q0 102 38 191.5t105 157t157.5 106t192.5 38.5q101 0 191.5 -38.5t158 -106t105 -157t37.5 -191.5t-37.5 -192.5t-105 -157.5t-158 -106.5t-191.5 -39.5q-102 0 -192.5 39.5t-157.5 106.5t-105 157t-38 193zM215 556q0 -88 32.5 -163t89 -132.5t133 -89.5 t162.5 -32t162 32t132.5 89.5t89.5 132.5t33 163q0 86 -33 161.5t-89.5 132.5t-132.5 89.5t-162 32.5t-162.5 -32.5t-133 -89.5t-89 -133t-32.5 -161zM345 553q0 59 23 113t61.5 92.5t90.5 60t109 21.5q60 0 112 -21.5t91.5 -61t61.5 -91.5t22 -110q0 -60 -23 -112.5 t-61.5 -90.5t-90.5 -60t-109 -22q-60 0 -112 22t-91.5 60t-61.5 90t-22 110zM407 1588h156l-24 -470h-108zM466 553q0 -67 48.5 -115.5t117.5 -48.5q66 0 113.5 47.5t47.5 119.5q0 67 -47.5 114.5t-116.5 47.5q-66 0 -114.5 -49t-48.5 -116zM702 1588h155l-24 -470h-109z " />
<glyph unicode="&#xe24;&#xe32;" horiz-adv-x="2202" d="M111 930q18 75 70.5 145.5t130 124.5t175.5 86.5t209 32.5q139 0 240 -39t168 -114q79 60 183 106.5t243 46.5q120 0 212.5 -37t156.5 -104t97 -158.5t33 -202.5v-1280h-198v1280q0 166 -83.5 248.5t-229.5 82.5q-107 0 -188.5 -36t-135.5 -92q35 -90 34 -203v-1280h-199 v1280q0 166 -86 248.5t-247 82.5q-132 0 -235 -57t-139 -149l175 -162q-62 -33 -92 -80t-30 -121v-352q0 -28 10.5 -44.5t42.5 -16.5h125v-166h-178q-95 0 -147 59t-52 149v342q0 67 32.5 127.5t92.5 90.5z" />
<glyph unicode="&#xe26;&#xe32;" horiz-adv-x="2213" d="M69 0v166h101q32 0 42.5 16.5t10.5 44.5v307q0 67 32 127.5t92 91.5l-213 177q19 75 71 145.5t128 124.5t175 86.5t210 32.5q136 0 235.5 -39t166.5 -109q79 60 182 104t239 44q120 0 212.5 -37t156.5 -104t97.5 -158.5t33.5 -202.5v-1280h-199v1280q0 166 -83 248.5 t-229 82.5q-104 0 -185.5 -35t-134.5 -88q38 -90 38 -208v-1280h-199v1280q0 166 -86 248.5t-245 82.5q-133 0 -234.5 -57t-138.5 -149l199 -178q-63 -33 -93 -80.5t-30 -120.5v-355q0 -90 -51.5 -150t-146.5 -58h-154z" />
<glyph unicode="fi" horiz-adv-x="1265" d="M42 960v158h170v37q0 196 104.5 312t317.5 116q88 0 162 -19.5t123 -45.5l-44 -141q-47 26 -106.5 37.5t-125.5 11.5q-132 0 -186.5 -73t-54.5 -200v-35h684v-1118h-196v960h-488v-960h-190v960h-170z" />
<glyph unicode="fl" horiz-adv-x="1334" d="M42 960v158h170v37q0 90 33 168.5t89.5 136.5t134 90.5t165.5 32.5q117 0 195 -38.5t131 -89.5l23 104h172v-1559h-195v1316q-46 45 -116.5 77.5t-154.5 32.5q-132 0 -209.5 -73t-77.5 -200v-35h322v-158h-322v-960h-190v960h-170z" />
<glyph unicode=" "  horiz-adv-x="578" />
<glyph unicode="&#x09;" horiz-adv-x="578" />
<glyph unicode="&#xa0;" horiz-adv-x="578" />
<glyph unicode="!" horiz-adv-x="587" d="M153 115q0 58 37 98.5t104 40.5q66 0 103.5 -40t37.5 -99q0 -57 -37.5 -97.5t-103.5 -40.5q-67 0 -104 40.5t-37 97.5zM192 1203v356h204v-356l-25 -768h-153z" />
<glyph unicode="&#x22;" horiz-adv-x="781" d="M130 1592h180l-28 -546h-125zM472 1592h181l-28 -546h-126z" />
<glyph unicode="#" horiz-adv-x="1323" d="M64 463v138h243l66 302h-214v139h243l100 462h162l-99 -462h319l99 462h163l-100 -462h213v-139h-243l-65 -302h213v-138h-243l-99 -463h-162l99 463h-319l-100 -463h-161l99 463h-214zM468 599h323l66 306h-325z" />
<glyph unicode="$" horiz-adv-x="1323" d="M172 62l48 161q62 -31 155 -52t215 -21v542q-69 22 -143 52.5t-135.5 79t-100.5 120.5t-39 178q0 159 99.5 268.5t318.5 132.5v213h130v-208q99 -5 183.5 -26t156.5 -56l-46 -159q-63 26 -138 44t-156 23v-514q74 -26 149.5 -59t136.5 -83.5t99.5 -123t38.5 -176.5 q0 -188 -116 -287.5t-308 -124.5v-218h-130v209q-150 0 -247.5 24.5t-170.5 60.5zM347 1127q0 -51 18.5 -88t52 -64.5t77.5 -48.5t95 -40v461q-126 -16 -184.5 -74t-58.5 -146zM720 162q108 18 176.5 77t68.5 163q0 51 -20 89.5t-52 67.5t-77 51t-96 40v-488z" />
<glyph unicode="%" horiz-adv-x="1795" d="M97 1120q0 83 21 157t63 129.5t103 88.5t142 33q79 0 140 -33t103 -88.5t64 -129.5t22 -157q0 -84 -22 -158t-64 -129.5t-103.5 -87.5t-139.5 -32q-81 0 -142 32t-103 87.5t-63 129.5t-21 158zM254 1120q0 -53 9.5 -104t30.5 -90.5t53.5 -62.5t78.5 -23t78.5 24 t53.5 62.5t30 88t9 103.5q0 53 -9 103.5t-30 90t-53.5 64t-78.5 24.5t-78.5 -24.5t-53.5 -64t-30.5 -90t-9.5 -101.5zM393 0l848 1528h161l-846 -1528h-163zM1042 384q0 84 20.5 158t62 129.5t103 87.5t142.5 32q79 0 140.5 -32t102.5 -87.5t63 -129.5t22 -158 q0 -83 -22 -157t-63 -129.5t-102.5 -88t-140.5 -32.5q-82 0 -143 32.5t-102.5 88t-62 129.5t-20.5 157zM1199 384q0 -53 9 -104t30 -90.5t53 -62.5t79 -23q46 0 78.5 24.5t53.5 62.5t30 88t9 103t-9 104t-30 90.5t-53.5 63.5t-78.5 24q-47 0 -79 -24t-53 -63.5t-30 -90.5 t-9 -102z" />
<glyph unicode="&#x26;" horiz-adv-x="1466" d="M148 426q0 79 24.5 144.5t66 118.5t96 98.5t111.5 84.5l-18 24q-71 86 -114 164.5t-43 167.5q0 164 97.5 259.5t284.5 95.5q100 0 170.5 -26.5t115 -73t65.5 -109t21 -133.5q0 -69 -27.5 -126t-75 -106t-106.5 -90.5t-122 -83.5l389 -464q81 134 81 316v123h194v-123 q0 -139 -39 -257t-111 -207l185 -223h-218l-87 104q-86 -60 -190.5 -93.5t-224.5 -33.5q-136 0 -235.5 34.5t-163.5 96.5t-95 142.5t-31 175.5zM356 433q0 -130 83.5 -200.5t238.5 -70.5q176 0 289 85l-409 491q-86 -62 -144 -135t-58 -170zM459 1241q0 -65 27.5 -128.5 t87.5 -131.5l14 -18q50 30 95.5 62.5t79.5 65.5t53 71.5t19 82.5q0 79 -42.5 127t-142.5 48q-88 0 -139.5 -44.5t-51.5 -134.5z" />
<glyph unicode="'" horiz-adv-x="439" d="M130 1592h180l-28 -546h-125z" />
<glyph unicode="(" horiz-adv-x="691" d="M162 655q0 190 37 342.5t99 272t146 204.5t179 142l46 -86q-84 -55 -145 -145.5t-102.5 -205.5t-62.5 -248.5t-21 -275.5q0 -143 21 -276.5t62.5 -248t102.5 -204.5t145 -146l-46 -85q-95 55 -179 140.5t-146 204.5t-99 272.5t-37 342.5z" />
<glyph unicode=")" horiz-adv-x="691" d="M23 -220q83 55 144.5 145.5t103 205t62.5 248t21 276.5q0 142 -21 275.5t-62.5 248.5t-103 205.5t-144.5 145.5l46 86q95 -55 178.5 -141t145.5 -205.5t99.5 -272t37.5 -342.5q0 -189 -37.5 -342.5t-99.5 -272.5t-145.5 -204.5t-178.5 -140.5z" />
<glyph unicode="*" horiz-adv-x="1175" d="M139 850l322 217v19l-322 212l130 126l252 -249l16 5l-44 379h190l-42 -379l17 -5l252 249l127 -126l-322 -212v-19l322 -217l-127 -123l-252 249l-17 -2l42 -377h-190l44 377l-16 2l-252 -249z" />
<glyph unicode="+" horiz-adv-x="1323" d="M172 579v157h402v412h176v-412h403v-157h-403v-413h-176v413h-402z" />
<glyph unicode="," horiz-adv-x="559" d="M120 -289l70 534h227l-176 -534h-121z" />
<glyph unicode="-" horiz-adv-x="749" d="M69 544v158h611v-158h-611z" />
<glyph unicode="." horiz-adv-x="559" d="M139 115q0 58 36.5 98.5t104.5 40.5q67 0 104 -40t37 -99q0 -57 -37 -97.5t-104 -40.5q-66 0 -103.5 40.5t-37.5 97.5z" />
<glyph unicode="/" horiz-adv-x="857" d="M23 -93l657 1652h155l-656 -1652h-156z" />
<glyph unicode="0" horiz-adv-x="1323" d="M111 753q0 368 144.5 571.5t406.5 203.5q261 0 405.5 -204t144.5 -571q0 -369 -144.5 -572.5t-405.5 -203.5t-406 203.5t-145 572.5zM310 753q0 -310 90 -459.5t262 -149.5t262 149t90 460q0 309 -90.5 458.5t-261.5 149.5q-172 0 -262 -149.5t-90 -458.5z" />
<glyph unicode="1" horiz-adv-x="1323" d="M223 0v181h367v1138l-319 -102v163l352 124h166v-1323h355v-181h-921z" />
<glyph unicode="2" horiz-adv-x="1323" d="M144 0v150l375 380q95 97 167.5 174.5t121.5 146t74 133.5t25 136q0 115 -79.5 171t-211.5 56q-97 0 -191 -24.5t-168 -59.5l-51 168q74 37 180.5 67t231.5 30q252 0 370 -111.5t118 -296.5q0 -95 -36 -183.5t-96 -176t-142 -173t-172 -170.5l-243 -232h740v-185h-1013z " />
<glyph unicode="3" horiz-adv-x="1323" d="M144 69l50 163q67 -33 166 -56t216 -23q179 0 264 75t85 198q0 134 -87.5 198.5t-236.5 64.5h-219v168h219q123 0 201.5 68t78.5 199q0 107 -77 167t-260 60q-109 0 -195 -20.5t-152 -53.5l-51 163q74 37 180.5 62.5t229.5 25.5q139 0 236.5 -32t161.5 -86t93 -127 t29 -156q0 -144 -63.5 -222.5t-160.5 -122.5q118 -33 193 -122.5t75 -235.5q0 -204 -140 -325.5t-401 -121.5q-139 0 -249 27t-186 65z" />
<glyph unicode="4" horiz-adv-x="1323" d="M106 287v137l771 1080h165v-1051h175v-166h-175v-287h-194v287h-742zM331 453h521v737z" />
<glyph unicode="5" horiz-adv-x="1323" d="M139 69l51 163q67 -33 163 -56t223 -23q95 0 165.5 24t118 66t71 98.5t23.5 121.5q0 146 -85 227t-284 81h-379v136l57 597h797v-185h-625l-35 -368h188q278 0 421.5 -129.5t143.5 -355.5q0 -228 -152.5 -358.5t-421.5 -130.5q-144 0 -254 27t-186 65z" />
<glyph unicode="6" horiz-adv-x="1323" d="M139 736q0 192 44 339t123.5 248t191 153t247.5 52q110 0 190.5 -24.5t152.5 -63.5l-48 -153q-128 74 -290 74q-187 0 -297.5 -139t-114.5 -398q26 28 65 59t91 56.5t117 42t144 16.5q97 0 180 -34t144.5 -97.5t95 -155t33.5 -207.5q0 -111 -35.5 -208t-101.5 -167.5 t-160 -111t-209 -40.5q-267 0 -415 190.5t-148 568.5zM340 669q0 -125 29 -222.5t77.5 -166t114.5 -102.5t141 -34q139 0 223 96t84 270q0 64 -14 121.5t-46.5 101.5t-86.5 69.5t-135 25.5q-128 0 -226.5 -47.5t-160.5 -111.5z" />
<glyph unicode="7" horiz-adv-x="1323" d="M166 1323v181h1005v-132l-646 -1372h-207l624 1323h-776z" />
<glyph unicode="8" horiz-adv-x="1323" d="M134 407q0 74 23.5 138t61.5 114t88.5 81t109.5 42q-102 33 -170 119.5t-68 222.5q0 186 126 295t357 109q232 0 358 -109t126 -295q0 -136 -68.5 -222.5t-170.5 -119.5q58 -11 109 -42t89.5 -81t61.5 -114t23 -138q0 -199 -140 -314.5t-388 -115.5q-247 0 -387.5 115.5 t-140.5 314.5zM329 412q0 -125 88 -199t245 -74t245.5 74t88.5 199q0 139 -80.5 208t-253.5 69q-174 0 -253.5 -69.5t-79.5 -207.5zM373 1115q0 -130 76 -196.5t213 -66.5t213 66.5t76 196.5q0 123 -77 186.5t-212 63.5q-134 0 -211.5 -63.5t-77.5 -186.5z" />
<glyph unicode="9" horiz-adv-x="1323" d="M115 1000q0 111 36.5 208t102.5 167.5t159.5 111.5t209.5 41q266 0 414 -191t148 -569q0 -393 -158.5 -592t-466.5 -199q-110 0 -199.5 23t-163.5 60l48 152q67 -35 149.5 -51.5t161.5 -16.5q223 0 324 140t105 396q-26 -28 -65 -59t-91 -56.5t-117 -41.5t-142 -16 q-98 0 -181.5 33.5t-144.5 97.5t-95 155t-34 207zM315 996q0 -65 13.5 -123t46 -102t86.5 -69.5t136 -25.5q127 0 225.5 47.5t160.5 111.5q0 125 -29 222.5t-77.5 166t-114.5 103t-139 34.5q-139 0 -223.5 -96.5t-84.5 -268.5z" />
<glyph unicode=":" horiz-adv-x="605" d="M162 115q0 58 37 98.5t104 40.5t104 -40t37 -99q0 -57 -36.5 -97.5t-104.5 -40.5q-67 0 -104 40.5t-37 97.5zM162 967q0 58 37 98.5t104 40.5t104 -40.5t37 -98.5q0 -57 -36.5 -98t-104.5 -41q-67 0 -104 41t-37 98z" />
<glyph unicode=";" horiz-adv-x="605" d="M132 -289l69 534h227l-176 -534h-120zM162 967q0 58 37 98.5t104 40.5t104 -40.5t37 -98.5q0 -57 -36.5 -98t-104.5 -41q-67 0 -104 41t-37 98z" />
<glyph unicode="&#x3c;" horiz-adv-x="1323" d="M153 592v130l986 535v-186l-790 -413l790 -415v-185z" />
<glyph unicode="=" horiz-adv-x="1323" d="M194 371v157h935v-157h-935zM194 786v159h935v-159h-935z" />
<glyph unicode="&#x3e;" horiz-adv-x="1323" d="M185 58v185l789 415l-789 413v186l986 -535v-130z" />
<glyph unicode="?" horiz-adv-x="1142" d="M111 1486q74 37 181.5 67t232.5 30q246 0 363 -105.5t117 -278.5q0 -90 -30 -161t-76.5 -128.5t-98.5 -107t-98.5 -97t-77 -97.5t-30.5 -111q0 -77 22 -126h-161q-15 26 -23 61.5t-8 71.5q0 75 27.5 133.5t70.5 110t92.5 97t92.5 96t71 108t28 131.5q0 44 -16.5 84.5 t-51 70.5t-87.5 48.5t-128 18.5q-97 0 -192 -24t-169 -59zM393 115q0 58 37.5 98.5t103.5 40.5q67 0 104.5 -40t37.5 -99q0 -57 -37.5 -97.5t-104.5 -40.5q-66 0 -103.5 40.5t-37.5 97.5z" />
<glyph unicode="@" horiz-adv-x="1897" d="M139 757q0 164 56.5 313t164.5 264t262.5 182t351.5 67q181 0 326.5 -57t247.5 -157.5t156 -240.5t54 -306q0 -137 -25.5 -235.5t-67.5 -163.5t-100.5 -95t-120.5 -30q-88 0 -144.5 61.5t-61.5 150.5q-18 -35 -51.5 -72.5t-80 -66.5t-102 -48.5t-116.5 -19.5 q-166 0 -262 122.5t-96 336.5q0 92 22 178.5t75 152.5t141.5 107t219.5 41q99 0 189.5 -23.5t169.5 -64.5v-556q0 -38 5.5 -70t18.5 -57.5t35 -40t54 -14.5q30 0 62.5 20t59 69t44 131.5t17.5 206.5q0 117 -39.5 231.5t-120.5 203t-207 144.5t-300 56q-171 0 -307.5 -57 t-230 -155.5t-143.5 -229t-50 -278.5q0 -169 54.5 -295t148 -211t218.5 -126t266 -41q95 0 189 24t168 71l49 -95q-75 -49 -177.5 -78t-232.5 -29q-166 0 -309.5 49t-250.5 146t-168 242.5t-61 342.5zM685 768q0 -85 18.5 -146.5t50.5 -101t74 -58t91 -18.5q113 0 187 94 t74 248v274q-33 18 -83.5 28.5t-111.5 10.5q-159 0 -229.5 -87t-70.5 -244z" />
<glyph unicode="A" horiz-adv-x="1448" d="M46 0l577 1559h203l576 -1559h-205l-153 419h-642l-150 -419h-206zM470 599h509l-157 428l-95 306h-5l-95 -306z" />
<glyph unicode="B" horiz-adv-x="1424" d="M185 0v1559h579q123 0 215 -31t155 -86t94 -132.5t31 -168.5q0 -66 -23.5 -120t-57.5 -94.5t-75 -67t-78 -40.5q53 -9 106.5 -36.5t96 -73t69 -109t26.5 -147.5q0 -99 -33 -182t-102.5 -143.5t-175 -94t-246.5 -33.5h-581zM380 179h384q174 0 269.5 71.5t95.5 202.5 q0 75 -26.5 124.5t-75 80.5t-115.5 45.5t-150 14.5h-382v-539zM380 894h386q62 0 116.5 15.5t95 48.5t63.5 81.5t23 110.5q0 113 -80.5 172.5t-219.5 59.5h-384v-488z" />
<glyph unicode="C" horiz-adv-x="1323" d="M102 780q0 176 48.5 324t142 254t232.5 165.5t317 59.5q123 0 211 -18.5t169 -55.5l-51 -167q-129 60 -326 60q-254 0 -399 -162t-145 -460q0 -294 141 -458.5t406 -164.5q88 0 174.5 17.5t162.5 55.5l51 -170q-86 -42 -182 -62.5t-212 -20.5q-192 0 -330.5 58t-230 163 t-135.5 253t-44 329z" />
<glyph unicode="D" horiz-adv-x="1513" d="M185 0v1559h453q382 0 575.5 -196.5t193.5 -580.5t-193.5 -583t-575.5 -199h-453zM384 185h254q276 0 423 138.5t147 458.5t-147 456.5t-423 136.5h-254v-1190z" />
<glyph unicode="E" horiz-adv-x="1263" d="M185 0v1559h954v-182h-755v-479h709v-183h-709v-532h769v-183h-968z" />
<glyph unicode="F" horiz-adv-x="1217" d="M185 0v1559h935v-182h-736v-502h690v-183h-690v-692h-199z" />
<glyph unicode="G" horiz-adv-x="1489" d="M102 784q0 188 50.5 336t150 251.5t243 157.5t329.5 54q123 0 214 -21t172 -58l-51 -166q-66 33 -154.5 48.5t-178.5 15.5q-267 0 -421.5 -153.5t-154.5 -464.5q0 -141 35 -256.5t94.5 -198t144.5 -127.5t187 -45q163 0 268 89.5t105 287.5v160h-313v181h507v-875h-163 l-31 183q-47 -86 -139.5 -146t-242.5 -60q-153 0 -275 56.5t-205 163t-127 254.5t-44 333z" />
<glyph unicode="H" horiz-adv-x="1526" d="M185 0v1559h199v-661h760v661h198v-1559h-198v713h-760v-713h-199z" />
<glyph unicode="I" horiz-adv-x="578" d="M190 0v1559h199v-1559h-199z" />
<glyph unicode="J" horiz-adv-x="883" d="M23 42l52 168q35 -20 91.5 -34t129.5 -14q93 0 150.5 66t57.5 223v1108h200v-1108q0 -243 -100 -356t-306 -113q-92 0 -160.5 17t-114.5 43z" />
<glyph unicode="K" horiz-adv-x="1396" d="M185 0v1559h199v-1559h-199zM488 777v95l625 687h236l-664 -728l690 -831h-246z" />
<glyph unicode="L" horiz-adv-x="1188" d="M185 0v1559h199v-1374h736v-185h-935z" />
<glyph unicode="M" horiz-adv-x="1832" d="M185 0v1559h241l367 -830q47 -100 75 -172.5t46 -119.5h5q18 47 46 119.5t75 172.5l367 830h241v-1559h-199v949q0 49 3 136.5t15 191.5h-5q-26 -86 -52 -150.5t-54 -126.5l-333 -748h-213l-333 748q-28 62 -54.5 127t-51.5 150h-5q11 -104 14.5 -191.5t3.5 -136.5v-949 h-199z" />
<glyph unicode="N" horiz-adv-x="1540" d="M185 0v1559h213l620 -1006q46 -75 87 -152t66 -130h4q-11 82 -14.5 163.5t-3.5 179.5v945h199v-1559h-212l-621 1007q-46 74 -86.5 151.5t-65.5 130.5h-5q11 -81 14.5 -163t3.5 -179v-947h-199z" />
<glyph unicode="O" horiz-adv-x="1601" d="M102 780q0 171 40.5 318t126 254.5t217.5 169t315 61.5t315 -61.5t217 -169t126 -254.5t41 -318q0 -172 -41 -318.5t-126 -254.5t-217 -169t-315 -61t-315 61t-217.5 169t-126 255t-40.5 318zM301 780q0 -305 124 -470.5t376 -165.5t376 165.5t124 470.5t-124 470.5 t-376 165.5t-376 -165t-124 -471z" />
<glyph unicode="P" horiz-adv-x="1309" d="M185 0v1559h511q123 0 219 -37.5t162.5 -104t100.5 -154.5t34 -189q0 -104 -36.5 -194.5t-105 -158.5t-166.5 -106.5t-221 -38.5h-299v-576h-199zM384 762h299q154 0 242.5 83t88.5 229q0 138 -81 219.5t-237 81.5h-312v-613z" />
<glyph unicode="Q" horiz-adv-x="1601" d="M102 780q0 171 40.5 318t126 254.5t217.5 169t315 61.5t315 -61.5t217 -169t126 -254.5t41 -318q0 -155 -33.5 -290.5t-103 -239.5t-176.5 -173.5t-255 -90.5q-18 -46 -54 -95.5t-89 -75.5h452v-171h-780v171h29q104 0 168 48.5t90 116.5q-169 9 -290.5 72t-200 170 t-117 249.5t-38.5 308.5zM301 780q0 -305 124 -470.5t376 -165.5t376 165.5t124 470.5t-124 470.5t-376 165.5t-376 -165t-124 -471z" />
<glyph unicode="R" horiz-adv-x="1365" d="M185 0v1559h557q124 0 220 -36.5t162 -99t100.5 -148t34.5 -182.5q0 -82 -24.5 -154.5t-70.5 -133t-112.5 -104t-148.5 -67.5l369 -634h-217l-357 614h-314v-614h-199zM384 799h345q155 0 243 79.5t88 214.5q0 130 -81 206t-237 76h-358v-576z" />
<glyph unicode="S" horiz-adv-x="1226" d="M115 64l51 165q65 -32 160 -53t213 -21q84 0 153.5 15t119 46t78.5 81t29 120q0 69 -30 115.5t-80 79.5t-117 57.5t-139 48.5q-69 22 -146.5 53.5t-142.5 81.5t-107 125t-42 186q0 90 30.5 166.5t95 133.5t165.5 88t239 31q115 0 208.5 -22t173.5 -61l-51 -164 q-66 32 -151 50.5t-180 18.5q-181 0 -259.5 -66.5t-78.5 -170.5q0 -64 28.5 -108t76 -76.5t109.5 -55.5t132 -47q79 -28 161 -62.5t147.5 -87.5t107.5 -130.5t42 -188.5q0 -110 -42 -192.5t-117 -137t-180 -80t-233 -25.5q-148 0 -247.5 24.5t-176.5 62.5z" />
<glyph unicode="T" horiz-adv-x="1188" d="M23 1375v184h1143v-184l-472 2v-1377h-199v1377z" />
<glyph unicode="U" horiz-adv-x="1545" d="M181 625v934h199v-936q0 -232 101.5 -346.5t291.5 -114.5t291.5 114.5t101.5 346.5v936h199v-934q0 -331 -159.5 -489.5t-432.5 -158.5q-274 0 -433 158.5t-159 489.5z" />
<glyph unicode="V" horiz-adv-x="1420" d="M42 1559h205l338 -943l124 -401h4l122 401l338 943h207l-568 -1559h-203z" />
<glyph unicode="W" horiz-adv-x="2038" d="M69 1559h202l197 -867q30 -130 45 -243t26 -224h5q18 115 41.5 220t61.5 231l274 883h197l273 -883q40 -126 63 -231t41 -220h5q11 111 26 224.5t46 242.5l196 867h202l-364 -1559h-195l-312 1016q-22 74 -44.5 165t-34.5 164h-4q-11 -71 -33.5 -163t-45.5 -166 l-310 -1016h-194z" />
<glyph unicode="X" horiz-adv-x="1433" d="M64 0l541 812l-497 747h223l384 -605h5l384 605h223l-496 -747l539 -812h-222l-428 671h-5l-428 -671h-223z" />
<glyph unicode="Y" horiz-adv-x="1314" d="M37 1559h210l408 -724h5l407 724h210l-520 -895v-664h-199v664z" />
<glyph unicode="Z" horiz-adv-x="1267" d="M93 0v139l795 1238h-740v182h1000v-139l-797 -1237h811v-183h-1069z" />
<glyph unicode="[" horiz-adv-x="656" d="M185 -273v1856h426v-148h-255v-1560h255v-148h-426z" />
<glyph unicode="\" horiz-adv-x="857" d="M23 1559h156l656 -1652h-155z" />
<glyph unicode="]" horiz-adv-x="656" d="M46 -125h255v1560h-255v148h426v-1856h-426v148z" />
<glyph unicode="^" horiz-adv-x="1207" d="M93 638l426 921h170l426 -921h-203l-307 716l-309 -716h-203z" />
<glyph unicode="_" horiz-adv-x="1003" d="M0 -155h1005v-157h-1005v157z" />
<glyph unicode="`" horiz-adv-x="693" d="M-28 1484l107 145l342 -289l-61 -86z" />
<glyph unicode="a" horiz-adv-x="1166" d="M93 315q0 192 130.5 285.5t359.5 93.5h232v37q0 132 -71 192t-186 60q-99 0 -186 -20.5t-162 -55.5l-44 137q62 37 166.5 67t232.5 30q223 0 328 -112.5t105 -299.5v-729h-146l-37 190q-26 -42 -55 -80.5t-73 -67t-104 -47t-146 -18.5q-71 0 -133.5 21.5t-110 64.5 t-74 106t-26.5 146zM282 315q0 -86 53.5 -135.5t136.5 -49.5q77 0 139 29t107.5 76t71 106t25.5 120v89h-234q-146 0 -222.5 -62t-76.5 -173z" />
<glyph unicode="b" horiz-adv-x="1294" d="M176 0v1559h195v-608q20 31 57.5 64.5t86 61t108.5 46t130 18.5q113 0 196 -48.5t136.5 -128.5t79 -180.5t25.5 -204.5q0 -292 -127.5 -447t-335.5 -155q-60 0 -115.5 17t-103 46t-82.5 68.5t-55 81.5l-38 -190h-157zM371 548q0 -90 27.5 -163t72.5 -125t104 -79.5 t121 -27.5q60 0 116 22t97.5 72.5t66 132t24.5 199.5q0 192 -77.5 289t-207.5 97q-101 0 -192.5 -52t-151.5 -131v-234z" />
<glyph unicode="c" horiz-adv-x="1064" d="M97 560q0 124 32.5 230t100.5 183.5t171 122.5t244 45q190 0 327 -72l-44 -146q-128 60 -285 60q-90 0 -157 -32t-111 -88.5t-65 -134.5t-21 -168t21 -169t66 -135.5t113.5 -89t163.5 -32.5q71 0 144 15t140 48l44 -144q-75 -39 -157 -57.5t-190 -18.5q-137 0 -237.5 45 t-167.5 124t-99.5 185t-32.5 229z" />
<glyph unicode="d" horiz-adv-x="1294" d="M106 558q0 120 32 225t94 185.5t152.5 126.5t207.5 46q62 0 114.5 -16t94 -41.5t73 -58t51.5 -65.5v599h195v-1559h-157l-38 190q-20 -42 -55 -81.5t-82.5 -68.5t-103 -46t-114.5 -17q-102 0 -188 39t-147 113t-95 182t-34 247zM296 560q0 -110 25.5 -188t68.5 -126.5 t97 -70.5t112 -22q62 0 121.5 27.5t104.5 79.5t72.5 125.5t27.5 162.5v243q-55 81 -134.5 127.5t-165.5 46.5q-146 0 -237.5 -99.5t-91.5 -305.5z" />
<glyph unicode="e" horiz-adv-x="1161" d="M97 560q0 124 28 230t89.5 183.5t157.5 122.5t235 45q229 0 338.5 -128.5t109.5 -343.5q0 -60 -5.5 -106.5t-17.5 -90.5h-743q18 -164 108.5 -251t260.5 -87q71 0 149.5 14t146.5 46l44 -143q-144 -74 -354 -74h-6q-273 0 -407 157.5t-134 425.5zM285 616h590v53 q0 153 -61 238.5t-207 85.5q-84 0 -142 -29t-96 -79t-59 -119.5t-25 -149.5z" />
<glyph unicode="f" horiz-adv-x="779" d="M42 960v158h170v59q0 93 20 167t63 128t111.5 82.5t167.5 28.5q75 0 128 -15t101 -40l-44 -141q-46 25 -88 32t-88 7q-58 0 -93 -17.5t-54 -48.5t-26.5 -78.5t-7.5 -106.5v-57h322v-158h-322v-960h-190v960h-170z" />
<glyph unicode="g" horiz-adv-x="1292" d="M106 570q0 115 32 219.5t94 182t152.5 123.5t207.5 46q62 0 114.5 -18.5t94 -46t73 -61.5t51.5 -64l33 167h162v-1023q0 -153 -38 -259.5t-107.5 -173.5t-165.5 -97.5t-210 -30.5q-123 0 -235 33t-176 75l48 155q67 -40 153 -64.5t183 -24.5q79 0 143.5 16.5t110.5 60 t72.5 119.5t26.5 193v115q-20 -41 -55 -80t-82.5 -68t-103 -46.5t-114.5 -17.5q-102 0 -188 39.5t-147 112.5t-95 178t-34 240zM296 572q0 -106 25.5 -181.5t68.5 -123t97 -69.5t112 -22q69 0 129.5 28t104.5 80t68 124.5t24 163.5v205q-46 82 -130 135t-170 53 q-146 0 -237.5 -98.5t-91.5 -294.5z" />
<glyph unicode="h" horiz-adv-x="1307" d="M176 0v1559h195v-599q20 29 57.5 60t86 58.5t109.5 45t131 17.5q181 0 282.5 -119t101.5 -326v-696h-190v696q0 126 -60.5 197.5t-168.5 71.5q-111 0 -200 -47.5t-149 -126.5v-791h-195z" />
<glyph unicode="i" horiz-adv-x="554" d="M148 1458q0 53 33.5 90t96.5 37q62 0 95.5 -37t33.5 -90t-33.5 -90t-95.5 -37t-96 37t-34 90zM181 0v1118h194v-1118h-194z" />
<glyph unicode="j" horiz-adv-x="554" d="M-130 -426l49 153q55 -23 118 -23q88 0 116 57.5t28 183.5v1173h194v-1171q0 -97 -15 -173.5t-53 -131t-102 -82.5t-163 -28q-53 0 -96 12t-76 30zM148 1458q0 53 33.5 90t96.5 37q62 0 95.5 -37t33.5 -90t-33.5 -90t-95.5 -37t-96 37t-34 90z" />
<glyph unicode="k" horiz-adv-x="1172" d="M176 0v1559h195v-1559h-195zM451 592v66l435 460h232l-468 -493l491 -625h-229q-128 164 -229 294q-45 55 -86 108t-74 95t-52 69z" />
<glyph unicode="l" horiz-adv-x="554" d="M181 0v1559h194v-1559h-194z" />
<glyph unicode="m" horiz-adv-x="1850" d="M174 0v1118h162l32 -167q21 31 51 64.5t71.5 61t96 46t124.5 18.5q111 0 182.5 -58t104.5 -158q53 89 146.5 152.5t213.5 63.5q166 0 245.5 -113.5t79.5 -294.5v-733h-190v733q0 107 -42 172t-135 65q-50 0 -94.5 -17.5t-81 -47.5t-65.5 -67t-50 -76v-762h-190v733 q0 107 -41 172t-132 65q-102 0 -177.5 -54.5t-116.5 -133.5v-782h-194z" />
<glyph unicode="n" horiz-adv-x="1305" d="M174 0v1118h162l32 -167q21 31 58 64.5t85.5 61t110 46t131.5 18.5q180 0 282 -119t102 -326v-696h-190v696q0 126 -60.5 197.5t-168.5 71.5q-111 0 -200.5 -51t-149.5 -132v-782h-194z" />
<glyph unicode="o" horiz-adv-x="1248" d="M97 560q0 124 31 230t96 183.5t164.5 122.5t236.5 45t236 -45t164 -122.5t96.5 -184t31.5 -229.5t-31.5 -229t-96.5 -185t-164 -124t-236 -45t-236.5 45t-164.5 124t-96 185t-31 229zM289 560q0 -90 20 -169t60 -135.5t104 -89t152 -32.5t151.5 32.5t104 89t60 135.5 t19.5 169q0 91 -19.5 168.5t-60 134t-104 88.5t-151.5 32t-152 -32t-104 -88.5t-60 -134t-20 -168.5z" />
<glyph unicode="p" horiz-adv-x="1292" d="M174 -442v1560h162l32 -167q21 31 58 64.5t85.5 61t108.5 46t130 18.5q113 0 196 -48.5t137 -128.5t79.5 -180.5t25.5 -204.5q0 -292 -128 -447t-336 -155q-60 0 -115.5 17t-102.5 46t-82 68.5t-56 81.5v-632h-194zM368 548q0 -90 28 -163t73 -125t104 -79.5t121 -27.5 q60 0 116 22t97.5 72.5t66 132t24.5 199.5q0 192 -78 289t-207 97q-102 0 -193.5 -52t-151.5 -131v-234z" />
<glyph unicode="q" horiz-adv-x="1292" d="M106 558q0 120 32 225t94 185.5t152.5 126.5t207.5 46q62 0 114.5 -17.5t94 -45t73 -61.5t51.5 -66l33 167h162v-1560h-195v632q-20 -42 -55 -81.5t-82.5 -68.5t-103 -46t-114.5 -17q-102 0 -188 39t-147 113t-95 182t-34 247zM296 560q0 -110 25.5 -188t68.5 -126.5 t97 -70.5t112 -22q62 0 121.5 27.5t104.5 79.5t72.5 125.5t27.5 162.5v229q-53 89 -129 138.5t-171 49.5q-146 0 -237.5 -99.5t-91.5 -305.5z" />
<glyph unicode="r" horiz-adv-x="859" d="M174 0v1118h157l37 -190q21 37 49.5 74.5t67 67t86 49.5t107.5 22q13 1 24 1q26 0 44 -4q28 -6 45 -14q23 -9 37 -20l-57 -194q-47 46 -128 46q-190 0 -275 -188v-768h-194z" />
<glyph unicode="s" horiz-adv-x="1001" d="M106 49l44 145q62 -30 141 -47t164 -17q137 0 195.5 49.5t58.5 116.5q0 44 -21 75t-56 55.5t-81.5 42t-99.5 33.5q-77 22 -139 50.5t-107.5 68t-69.5 93.5t-24 128q0 141 108 220t300 79q95 0 183.5 -17.5t158.5 -54.5l-44 -146q-62 31 -131.5 48t-151.5 17 q-125 0 -180.5 -41.5t-55.5 -104.5q0 -75 58.5 -111.5t157.5 -68.5q95 -30 167 -63.5t119.5 -76.5t71.5 -98.5t24 -129.5q0 -144 -103.5 -230.5t-326.5 -86.5q-111 0 -202.5 17t-157.5 55z" />
<glyph unicode="t" horiz-adv-x="818" d="M42 960v158h173l46 319h141v-319h343v-158h-343v-648q0 -84 25.5 -131t111.5 -47q51 0 96 11.5t80 30.5l44 -141q-48 -30 -106.5 -44t-145.5 -14q-150 0 -222.5 80t-72.5 253v650h-170z" />
<glyph unicode="u" horiz-adv-x="1290" d="M170 421v697h188v-697q0 -129 57 -201t150 -72q125 0 211.5 65t146.5 151v754h195v-1118h-158l-37 190q-20 -35 -55 -73t-83.5 -69.5t-112 -51t-142.5 -19.5q-81 0 -146.5 24.5t-113 78.5t-74 138.5t-26.5 202.5z" />
<glyph unicode="v" horiz-adv-x="1084" d="M37 1118h201l195 -546l106 -373h5l106 373l198 546h201l-406 -1118h-201z" />
<glyph unicode="w" horiz-adv-x="1581" d="M60 1118h192l130 -565q16 -67 27.5 -167.5t21.5 -204.5h4q18 99 34.5 174.5t40.5 151.5l188 611h186l190 -611q22 -76 38.5 -151.5t35.5 -174.5h5q9 104 20.5 204.5t27.5 167.5l130 565h192l-266 -1118h-193l-180 567q-33 97 -52.5 186t-38.5 194h-4q-18 -104 -38 -193.5 t-53 -186.5l-179 -567h-192z" />
<glyph unicode="x" horiz-adv-x="1126" d="M55 0l404 581l-371 537h204l268 -407h5l270 407h205l-373 -537l404 -581h-203l-303 451h-5l-301 -451h-204z" />
<glyph unicode="y" horiz-adv-x="1283" d="M170 444v674h188v-674q0 -130 56 -201t149 -71q125 0 210.5 64.5t142.5 149.5v732h195v-1023q0 -285 -138 -423t-383 -138q-106 0 -210 30.5t-170 71.5l49 156q66 -39 146.5 -61.5t170.5 -22.5q82 0 145 19t106 64t66 120t23 186v115q-20 -35 -55 -72.5t-82.5 -68.5 t-109.5 -51t-141 -20q-82 0 -147.5 24.5t-111.5 78.5t-72.5 139t-26.5 202z" />
<glyph unicode="z" horiz-adv-x="1045" d="M97 0v111l590 849h-546v158h782v-111l-590 -850h612v-157h-848z" />
<glyph unicode="{" horiz-adv-x="735" d="M120 592v126q106 0 146.5 46t40.5 134q0 38 -5.5 86t-11 99.5t-11.5 101t-6 90.5q0 157 90 232.5t257 75.5h47v-119h-42q-100 0 -140.5 -55t-40.5 -161q0 -80 16.5 -168.5t16.5 -172.5q0 -104 -39.5 -164t-127.5 -85v-5q88 -26 127.5 -86t39.5 -165q0 -83 -16.5 -172 t-16.5 -168q0 -106 40.5 -161.5t140.5 -55.5h42v-118h-47q-166 0 -256.5 75t-90.5 233q0 42 6 91.5t11.5 100.5t11 98.5t5.5 86.5q0 89 -40 134.5t-147 45.5z" />
<glyph unicode="|" horiz-adv-x="592" d="M208 -463v2254h176v-2254h-176z" />
<glyph unicode="}" horiz-adv-x="735" d="M69 -155h42q99 0 140 55.5t41 161.5q0 79 -16.5 168.5t-16.5 171.5q0 104 39.5 164.5t127.5 86.5v5q-88 26 -127.5 85.5t-39.5 163.5q0 84 16.5 172.5t16.5 168.5q0 106 -41 161t-140 55h-42v119h46q166 0 257 -75t91 -233q0 -42 -6 -91t-11.5 -100.5t-11.5 -100 t-6 -85.5q0 -88 41 -134t147 -46v-126q-106 0 -147 -46.5t-41 -133.5q0 -39 6 -86.5t11.5 -98.5t11.5 -100.5t6 -91.5q0 -157 -90.5 -232.5t-257.5 -75.5h-46v118z" />
<glyph unicode="~" horiz-adv-x="1276" d="M93 696q18 40 48.5 80.5t69.5 74t88.5 54t109.5 20.5q86 0 145.5 -28.5t109 -64t96 -65t106.5 -29.5q79 0 132 48.5t92 109.5l95 -99q-46 -95 -127.5 -163.5t-187.5 -68.5q-86 0 -146 30t-110.5 64.5t-97 65t-101.5 30.5q-88 0 -138 -48.5t-89 -112.5z" />
<glyph horiz-adv-x="1157" />
<glyph unicode="&#xa0;" />
<glyph unicode="&#xa1;" horiz-adv-x="587" d="M153 1002q0 58 37 98.5t104 40.5q66 0 103.5 -40.5t37.5 -98.5q0 -57 -37.5 -98t-103.5 -41q-67 0 -104 41t-37 98zM192 -86l26 769h153l25 -769v-356h-204v356z" />
<glyph unicode="&#xa2;" horiz-adv-x="1323" d="M225 560q0 113 30 214t91 177t152.5 124.5t214.5 61.5v212h129v-210q161 -7 280 -70l-44 -146q-53 26 -112 39.5t-124 18.5v-847q60 5 125 21.5t121 41.5l43 -144q-120 -62 -289 -73v-212h-129v214q-123 9 -214.5 57.5t-151.5 126t-91 178t-31 216.5zM417 560 q0 -81 18 -151.5t55.5 -126t92.5 -91.5t130 -50v835q-148 -22 -222 -137t-74 -279z" />
<glyph unicode="&#xa3;" horiz-adv-x="1323" d="M153 0v199h76q51 20 96.5 54t77.5 74.5t50.5 83t18.5 82.5q0 53 -13 99t-31 91h-264v145h187q-35 65 -61.5 133t-26.5 152q0 95 38.5 171.5t104.5 130.5t153.5 83.5t188.5 29.5q120 0 198.5 -23.5t159.5 -64.5l-51 -168q-66 35 -132 55t-155 20q-81 0 -134 -23t-84 -61.5 t-45.5 -85t-14.5 -89.5q0 -74 24.5 -137t57.5 -123h358v-145h-285q16 -40 25.5 -80t9.5 -87q0 -104 -58.5 -185t-162.5 -132h749v-199h-1055z" />
<glyph unicode="&#xa4;" horiz-adv-x="1323" d="M190 1141l92 95l133 -132q106 84 247 84q69 0 130.5 -22t119.5 -62l130 130l89 -95l-124 -128q42 -60 61.5 -119t19.5 -133q0 -66 -21 -129t-60 -116l128 -130l-93 -102l-130 135q-60 -40 -119.5 -59.5t-128.5 -19.5q-74 0 -134 19.5t-115 59.5l-130 -135q-21 26 -47 52 t-46 50l128 130q-82 104 -82 245q0 72 21 132t61 120zM371 759q0 -60 23 -112.5t62 -91.5t92 -62t114 -23q58 0 112 23t95 62t65 91.5t24 112.5q0 63 -24 116t-65 92.5t-95 62.5t-112 23q-60 0 -113.5 -23t-92.5 -62.5t-62 -92.5t-23 -116z" />
<glyph unicode="&#xa5;" horiz-adv-x="1323" d="M111 1504h211l338 -669h4l338 669h210l-377 -701h285v-114h-345l-13 -25v-143h358v-114h-358v-407h-199v407h-360v114h360v143l-15 25h-345v114h285z" />
<glyph unicode="&#xa6;" horiz-adv-x="578" d="M208 -405v812h163v-812h-163zM208 748v811h163v-811h-163z" />
<glyph unicode="&#xa7;" horiz-adv-x="1323" d="M203 777q0 89 41 143t107 80q-53 46 -75 109.5t-22 128.5q0 153 120.5 249t329.5 96q95 0 183.5 -23t158.5 -58l-44 -146q-60 33 -130.5 54t-151.5 21q-144 0 -210 -56t-66 -137q0 -41 22 -72t58 -55.5t83.5 -43t98.5 -35.5q67 -23 143 -52t140 -70.5t107 -101.5t43 -146 t-40.5 -141t-107.5 -79q55 -56 78.5 -122t23.5 -130q0 -77 -37.5 -138t-104.5 -105t-161 -67.5t-209 -23.5q-97 0 -196.5 22.5t-169.5 59.5l44 146q62 -31 141 -53t165 -22q71 0 132.5 13t107 37.5t72 57.5t26.5 73q0 48 -22 81.5t-59.5 59t-85 44t-98.5 34.5 q-57 16 -132 42t-142.5 69t-114 105t-46.5 152zM402 801q0 -51 29.5 -88t74 -62.5t98.5 -44t102 -32.5q53 -16 91 -26.5t80 -33.5q16 11 30 30q12 15 21 39t9 55q0 84 -81 136t-218 92q-57 18 -95.5 28.5t-76.5 33.5q-19 -14 -33 -32q-12 -16 -21.5 -39.5t-9.5 -55.5z" />
<glyph unicode="&#xa8;" horiz-adv-x="693" d="M7 1414q0 46 30 81t88 35t88 -35t30 -81q0 -47 -30 -81.5t-88 -34.5q-57 0 -87.5 34.5t-30.5 81.5zM451 1414q0 46 30.5 81t88.5 35q57 0 87 -35t30 -81q0 -47 -30 -81.5t-87 -34.5q-58 0 -88.5 34.5t-30.5 81.5z" />
<glyph unicode="&#xa9;" horiz-adv-x="1596" d="M93 780q0 150 56.5 282t152.5 230.5t224.5 155t272.5 56.5q143 0 271.5 -56.5t224.5 -155t152.5 -230.5t56.5 -282q0 -151 -56.5 -282.5t-152.5 -229.5t-224.5 -155.5t-271.5 -57.5q-144 0 -272.5 57.5t-224.5 155.5t-152.5 229.5t-56.5 282.5zM210 780q0 -130 45.5 -242 t124.5 -196.5t186 -133.5t233 -49q125 0 232.5 49t186 133.5t124 196.5t45.5 242q0 127 -45.5 241t-124 198t-186.5 132.5t-232 48.5q-126 0 -233 -48.5t-186 -132.5t-124.5 -198t-45.5 -241zM440 777q0 -88 23 -163t70.5 -130.5t119 -87.5t169.5 -32q76 0 134 13.5 t111 39.5l-30 104q-97 -46 -202 -46q-69 0 -117.5 23t-79.5 63t-46.5 96t-15.5 120q0 133 60 218t192 85q109 0 201 -43l33 104q-99 51 -234 51q-99 0 -172 -32.5t-121.5 -88t-71.5 -130.5t-23 -164z" />
<glyph unicode="&#xaa;" horiz-adv-x="804" d="M33 928q0 143 98 210.5t267 67.5h150v18q0 88 -47.5 130t-120.5 42q-67 0 -132 -16.5t-125 -46.5l-39 118q48 26 126.5 51.5t175.5 25.5q164 0 243.5 -83.5t79.5 -222.5v-528h-133l-20 105q-35 -46 -92 -83.5t-170 -37.5q-109 0 -185 64t-76 186zM199 928q0 -56 34 -89 t87 -33q51 0 93 19.5t72.5 52t46.5 74t16 82.5v56h-150q-97 0 -148 -42.5t-51 -119.5z" />
<glyph unicode="&#xab;" horiz-adv-x="1056" d="M93 560l298 416h157l-298 -416l298 -416h-157zM512 560l298 416h155l-298 -416l298 -416h-155z" />
<glyph unicode="&#xac;" horiz-adv-x="1159" d="M93 685v165h951v-572h-174v407h-777z" />
<glyph unicode="&#xad;" horiz-adv-x="693" d="M23 502v151h648v-151h-648z" />
<glyph unicode="&#xae;" horiz-adv-x="1226" d="M93 1062q0 109 38.5 204t106 165.5t163.5 111t213 40.5q115 0 211 -40.5t164.5 -111t107 -165.5t38.5 -204q0 -108 -38.5 -203t-107 -165.5t-164.5 -111.5t-211 -41q-116 0 -212.5 41t-164 111.5t-106 165.5t-38.5 203zM190 1062q0 -90 31 -168.5t87 -138t133.5 -94 t172.5 -34.5t172 34.5t132.5 94t87 138t31.5 168.5q0 91 -31.5 169.5t-87 137.5t-132.5 93.5t-172 34.5t-172.5 -34.5t-133.5 -93.5t-87 -137.5t-31 -169.5zM428 764h97v224h95l135 -224h104l-139 234q60 18 97 66.5t37 108.5q0 75 -47.5 124.5t-159.5 49.5h-219v-583z M525 1076v183h120q60 0 86 -22t26 -64q0 -97 -114 -97h-118z" />
<glyph unicode="&#xaf;" horiz-adv-x="693" d="M23 1327v133h648v-133h-648z" />
<glyph unicode="&#xb0;" horiz-adv-x="823" d="M93 1275q0 62 24 119t68 99t102 66t125 24t124.5 -24t102 -66t68.5 -98.5t24 -119.5t-24 -119.5t-68.5 -98t-102 -66t-124.5 -24.5q-66 0 -124.5 24.5t-102.5 66t-68 98t-24 119.5zM203 1275q0 -42 16.5 -80t44.5 -67t66 -45t82 -16q45 0 83.5 16t68.5 45t46.5 67.5 t16.5 79.5q0 86 -62.5 145t-152.5 59q-44 0 -82 -16.5t-66 -44t-44.5 -65t-16.5 -78.5z" />
<glyph unicode="&#xb1;" horiz-adv-x="1323" d="M162 0v134h982v-134h-982zM162 601v158h403v389h175v-389h404v-158h-404v-389h-175v389h-403z" />
<glyph unicode="&#xb2;" horiz-adv-x="716" d="M60 694v103l207 208q88 88 140 155.5t52 137.5q0 49 -35 74.5t-95 25.5q-40 0 -95 -15.5t-104 -40.5l-40 122q49 23 111 43.5t130 20.5q146 0 215.5 -63t69.5 -167q0 -53 -25.5 -103.5t-65 -99.5t-84.5 -94t-83 -82l-89 -91h369v-134h-578z" />
<glyph unicode="&#xb3;" horiz-adv-x="705" d="M60 742l42 121q44 -22 99.5 -37.5t110.5 -15.5q81 0 119.5 37t38.5 90q0 60 -38.5 89t-104.5 29h-137v125h137q53 0 86 29t33 92q0 44 -33 71.5t-119 27.5q-49 0 -97.5 -14t-94.5 -37l-42 120q51 26 113.5 42.5t127.5 16.5q159 0 228.5 -66t69.5 -161q0 -67 -31 -109 t-84 -65q69 -18 104 -70t35 -120q0 -118 -78.5 -186t-229.5 -68q-81 0 -144 17.5t-111 41.5z" />
<glyph unicode="&#xb4;" horiz-adv-x="693" d="M273 1340l343 289l106 -145l-389 -230z" />
<glyph unicode="&#xb5;" horiz-adv-x="1294" d="M174 -463v1581h190v-697q0 -129 57.5 -201t161.5 -72q115 0 200 65t145 151v754h194v-1118h-157l-37 190q-21 -35 -56 -73t-78.5 -69.5t-97 -51t-113.5 -19.5q-86 0 -138 20.5t-81 60.5v-521h-190z" />
<glyph unicode="&#xb6;" horiz-adv-x="1038" d="M93 1150q0 98 33 174t90 128t131 79.5t157 27.5h466v-117h-91q-93 0 -122.5 -37.5t-29.5 -112.5v-1403h-177v861h-57q-75 0 -146 25.5t-128 75.5t-91.5 125t-34.5 174z" />
<glyph unicode="&#xb7;" horiz-adv-x="559" d="M139 636q0 58 36.5 98.5t104.5 40.5q67 0 104 -40.5t37 -98.5q0 -57 -37 -98t-104 -41q-66 0 -103.5 41t-37.5 98z" />
<glyph unicode="&#xb8;" horiz-adv-x="693" d="M115 -386l192 298h128l-108 -298h-212z" />
<glyph unicode="&#xb9;" horiz-adv-x="667" d="M79 694v132h192v546l-167 -53v125l201 71h119v-689h185v-132h-530z" />
<glyph unicode="&#xba;" horiz-adv-x="920" d="M69 1104q0 88 23 165.5t71.5 134t121.5 90.5t176 34q99 0 173.5 -34t123 -90.5t71.5 -134t23 -165.5q0 -90 -23 -167.5t-71.5 -134.5t-123 -90.5t-173.5 -33.5q-102 0 -175.5 33.5t-122 90.5t-71.5 134.5t-23 167.5zM236 1104q0 -125 53 -210.5t172 -85.5q118 0 172 85.5 t54 210.5t-54 208.5t-172 83.5q-117 0 -171 -83.5t-54 -208.5z" />
<glyph unicode="&#xbb;" horiz-adv-x="1056" d="M93 144l298 416l-298 416h154l299 -416l-299 -416h-154zM510 144l298 416l-298 416h157l298 -416l-298 -416h-157z" />
<glyph unicode="&#xbc;" horiz-adv-x="1795" d="M125 694v132h193v546l-168 -53v125l201 71h119v-689h185v-132h-530zM393 0l848 1528h161l-846 -1528h-163zM972 150v107l403 565h122v-537h93v-135h-93v-150h-146v150h-379zM1139 285h215v294z" />
<glyph unicode="&#xbd;" horiz-adv-x="1795" d="M125 694v132h193v546l-168 -53v125l201 71h119v-689h185v-132h-530zM393 0l848 1528h161l-846 -1528h-163zM1093 0v102l205 208q89 88 140.5 156t51.5 139q0 48 -35 73.5t-94 25.5q-40 0 -95.5 -15.5t-103.5 -41.5l-40 124q49 22 111.5 42t129.5 20q146 0 215.5 -62 t69.5 -166q0 -54 -25.5 -105t-65 -100t-84.5 -94t-82 -81l-90 -91h370v-134h-578z" />
<glyph unicode="&#xbe;" horiz-adv-x="1795" d="M106 742l42 121q44 -22 99.5 -37.5t110.5 -15.5q82 0 120 37t38 90q0 60 -38 89t-105 29h-137v125h137q53 0 86.5 29t33.5 92q0 44 -33.5 71.5t-119.5 27.5q-48 0 -97 -14t-95 -37l-42 120q51 26 113.5 42.5t127.5 16.5q159 0 228.5 -66t69.5 -161q0 -67 -31 -109 t-84 -65q69 -18 104 -70t35 -120q0 -118 -78.5 -186t-230.5 -68q-81 0 -143 17.5t-111 41.5zM393 0l848 1528h161l-846 -1528h-163zM972 150v107l403 565h122v-537h93v-135h-93v-150h-146v150h-379zM1139 285h215v294z" />
<glyph unicode="&#xbf;" horiz-adv-x="1142" d="M139 -81q0 90 30 160.5t76.5 129t98.5 108t98 97t76 97t30 109.5q0 75 -20 128h159q16 -26 24.5 -62t8.5 -72q0 -77 -28 -135t-70.5 -108.5t-92.5 -97t-93 -96t-70.5 -108t-27.5 -131.5q0 -44 16.5 -85t51 -70.5t87.5 -48.5t127 -19q98 0 192.5 24.5t168.5 59.5l51 -167 q-75 -38 -182.5 -68t-231.5 -30q-245 0 -362 106t-117 279zM468 1002q0 58 36.5 98.5t104.5 40.5q67 0 104 -40.5t37 -98.5q0 -57 -37 -98t-104 -41t-104 41t-37 98z" />
<glyph unicode="&#xc0;" horiz-adv-x="1448" d="M46 0l577 1559h203l576 -1559h-205l-153 419h-642l-150 -419h-206zM470 599h509l-157 428l-95 306h-5l-95 -306zM500 1937l107 145l342 -289l-61 -86z" />
<glyph unicode="&#xc1;" horiz-adv-x="1448" d="M46 0l577 1559h203l576 -1559h-205l-153 419h-642l-150 -419h-206zM470 599h509l-157 428l-95 306h-5l-95 -306zM500 1793l343 289l106 -145l-389 -230z" />
<glyph unicode="&#xc2;" horiz-adv-x="1448" d="M46 0l577 1559h203l576 -1559h-205l-153 419h-642l-150 -419h-206zM388 1714l269 327h135l268 -327h-193l-143 197l-144 -197h-192zM470 599h509l-157 428l-95 306h-5l-95 -306z" />
<glyph unicode="&#xc3;" horiz-adv-x="1448" d="M46 0l577 1559h203l576 -1559h-205l-153 419h-642l-150 -419h-206zM372 1747q0 245 206 245q49 0 88.5 -17.5t73 -39.5t62 -39t56.5 -17q47 0 62 30t15 76h140q0 -125 -52 -185t-149 -60q-51 0 -90 17t-71.5 39t-61.5 39.5t-62 17.5q-46 0 -62 -33.5t-16 -72.5h-139z M470 599h509l-157 428l-95 306h-5l-95 -306z" />
<glyph unicode="&#xc4;" horiz-adv-x="1448" d="M46 0l577 1559h203l576 -1559h-205l-153 419h-642l-150 -419h-206zM384 1867q0 46 30 81t88 35t88 -35t30 -81q0 -47 -30 -81.5t-88 -34.5q-57 0 -87.5 34.5t-30.5 81.5zM470 599h509l-157 428l-95 306h-5l-95 -306zM828 1867q0 46 30.5 81t88.5 35q57 0 87 -35t30 -81 q0 -47 -30 -81.5t-87 -34.5q-58 0 -88.5 34.5t-30.5 81.5z" />
<glyph unicode="&#xc5;" horiz-adv-x="1448" d="M46 0l577 1559h203l576 -1559h-205l-153 419h-642l-150 -419h-206zM470 599h509l-157 428l-95 306h-5l-95 -306zM502 1920q0 92 64.5 157t157.5 65t158 -65t65 -157q0 -93 -65 -156t-158 -63t-157.5 63t-64.5 156zM615 1922q0 -53 31.5 -84t77.5 -31t79 31t33 84 t-33 84.5t-79 31.5t-77.5 -31.5t-31.5 -84.5z" />
<glyph unicode="&#xc6;" horiz-adv-x="1885" d="M46 0l687 1559h1029v-182h-771l144 -479h580v-183h-527l157 -532h430v-183h-581l-123 419h-640l-181 -419h-204zM512 599h508l-126 428l-72 306h-5l-119 -306z" />
<glyph unicode="&#xc7;" horiz-adv-x="1323" d="M102 780q0 176 48.5 324t142 254t232.5 165.5t317 59.5q123 0 211 -18.5t169 -55.5l-51 -167q-129 60 -326 60q-254 0 -399 -162t-145 -460q0 -294 141 -458.5t406 -164.5q88 0 174.5 17.5t162.5 54.5l51 -169q-86 -42 -182 -62.5t-212 -20.5q-192 0 -330.5 58t-230 163 t-135.5 253t-44 329zM548 -386l192 298h128l-108 -298h-212z" />
<glyph unicode="&#xc8;" horiz-adv-x="1263" d="M185 0v1559h954v-182h-755v-479h709v-183h-709v-532h769v-183h-968zM431 1937l107 145l342 -289l-61 -86z" />
<glyph unicode="&#xc9;" horiz-adv-x="1263" d="M185 0v1559h954v-182h-755v-479h709v-183h-709v-532h769v-183h-968zM476 1793l343 289l106 -145l-389 -230z" />
<glyph unicode="&#xca;" horiz-adv-x="1263" d="M185 0v1559h954v-182h-755v-479h709v-183h-709v-532h769v-183h-968zM329 1714l269 327h135l268 -327h-193l-143 197l-144 -197h-192z" />
<glyph unicode="&#xcb;" horiz-adv-x="1263" d="M185 0v1559h954v-182h-755v-479h709v-183h-709v-532h769v-183h-968zM325 1867q0 46 30 81t88 35t88 -35t30 -81q0 -47 -30 -81.5t-88 -34.5q-57 0 -87.5 34.5t-30.5 81.5zM769 1867q0 46 30.5 81t88.5 35q57 0 87 -35t30 -81q0 -47 -30 -81.5t-87 -34.5q-58 0 -88.5 34.5 t-30.5 81.5z" />
<glyph unicode="&#xcc;" horiz-adv-x="578" d="M65 1937l107 145l342 -289l-61 -86zM190 0v1559h199v-1559h-199z" />
<glyph unicode="&#xcd;" horiz-adv-x="578" d="M67 1793l343 289l106 -145l-389 -230zM190 0v1559h199v-1559h-199z" />
<glyph unicode="&#xce;" horiz-adv-x="578" d="M-44 1714l269 327h135l268 -327h-193l-143 197l-144 -197h-192zM190 0v1559h199v-1559h-199z" />
<glyph unicode="&#xcf;" horiz-adv-x="578" d="M-48 1867q0 46 30 81t88 35t88 -35t30 -81q0 -47 -30 -81.5t-88 -34.5q-57 0 -87.5 34.5t-30.5 81.5zM190 0v1559h199v-1559h-199zM396 1867q0 46 30.5 81t88.5 35q57 0 87 -35t30 -81q0 -47 -30 -81.5t-87 -34.5q-58 0 -88.5 34.5t-30.5 81.5z" />
<glyph unicode="&#xd0;" horiz-adv-x="1513" d="M26 694v158h159v707h453q382 0 575.5 -196.5t193.5 -580.5t-193.5 -583t-575.5 -199h-453v694h-159zM384 185h254q276 0 423 138.5t147 458.5t-147 456.5t-423 136.5h-254v-523h415v-158h-415v-509z" />
<glyph unicode="&#xd1;" horiz-adv-x="1540" d="M185 0v1559h213l620 -1006q46 -75 87 -152t66 -130h4q-11 82 -14.5 163.5t-3.5 179.5v945h199v-1559h-212l-621 1007q-46 74 -86.5 151.5t-65.5 130.5h-5q11 -81 14.5 -163t3.5 -179v-947h-199zM419 1747q0 245 206 245q49 0 88.5 -17.5t73 -39.5t62 -39t56.5 -17 q47 0 62 30t15 76h140q0 -125 -52 -185t-149 -60q-51 0 -90 17t-71.5 39t-61.5 39.5t-62 17.5q-46 0 -62 -33.5t-16 -72.5h-139z" />
<glyph unicode="&#xd2;" horiz-adv-x="1601" d="M102 780q0 171 40.5 318t126 254.5t217.5 169t315 61.5t315 -61.5t217 -169t126 -254.5t41 -318q0 -172 -41 -318.5t-126 -254.5t-217 -169t-315 -61t-315 61t-217.5 169t-126 255t-40.5 318zM301 780q0 -305 124 -470.5t376 -165.5t376 165.5t124 470.5t-124 470.5 t-376 165.5t-376 -165t-124 -471zM577 1937l107 145l342 -289l-61 -86z" />
<glyph unicode="&#xd3;" horiz-adv-x="1601" d="M102 780q0 171 40.5 318t126 254.5t217.5 169t315 61.5t315 -61.5t217 -169t126 -254.5t41 -318q0 -172 -41 -318.5t-126 -254.5t-217 -169t-315 -61t-315 61t-217.5 169t-126 255t-40.5 318zM301 780q0 -305 124 -470.5t376 -165.5t376 165.5t124 470.5t-124 470.5 t-376 165.5t-376 -165t-124 -471zM576 1793l343 289l106 -145l-389 -230z" />
<glyph unicode="&#xd4;" horiz-adv-x="1601" d="M102 780q0 171 40.5 318t126 254.5t217.5 169t315 61.5t315 -61.5t217 -169t126 -254.5t41 -318q0 -172 -41 -318.5t-126 -254.5t-217 -169t-315 -61t-315 61t-217.5 169t-126 255t-40.5 318zM301 780q0 -305 124 -470.5t376 -165.5t376 165.5t124 470.5t-124 470.5 t-376 165.5t-376 -165t-124 -471zM464 1714l269 327h135l268 -327h-193l-143 197l-144 -197h-192z" />
<glyph unicode="&#xd5;" horiz-adv-x="1601" d="M102 780q0 171 40.5 318t126 254.5t217.5 169t315 61.5t315 -61.5t217 -169t126 -254.5t41 -318q0 -172 -41 -318.5t-126 -254.5t-217 -169t-315 -61t-315 61t-217.5 169t-126 255t-40.5 318zM301 780q0 -305 124 -470.5t376 -165.5t376 165.5t124 470.5t-124 470.5 t-376 165.5t-376 -165t-124 -471zM448 1747q0 245 206 245q49 0 88.5 -17.5t73 -39.5t62 -39t56.5 -17q47 0 62 30t15 76h140q0 -125 -52 -185t-149 -60q-51 0 -90 17t-71.5 39t-61.5 39.5t-62 17.5q-46 0 -62 -33.5t-16 -72.5h-139z" />
<glyph unicode="&#xd6;" horiz-adv-x="1601" d="M102 780q0 171 40.5 318t126 254.5t217.5 169t315 61.5t315 -61.5t217 -169t126 -254.5t41 -318q0 -172 -41 -318.5t-126 -254.5t-217 -169t-315 -61t-315 61t-217.5 169t-126 255t-40.5 318zM301 780q0 -305 124 -470.5t376 -165.5t376 165.5t124 470.5t-124 470.5 t-376 165.5t-376 -165t-124 -471zM460 1867q0 46 30 81t88 35t88 -35t30 -81q0 -47 -30 -81.5t-88 -34.5q-57 0 -87.5 34.5t-30.5 81.5zM904 1867q0 46 30.5 81t88.5 35q57 0 87 -35t30 -81q0 -47 -30 -81.5t-87 -34.5q-58 0 -88.5 34.5t-30.5 81.5z" />
<glyph unicode="&#xd7;" horiz-adv-x="1323" d="M201 320l338 338l-338 338l123 122l338 -338l338 338l122 -122l-338 -338l338 -338l-122 -123l-338 337l-338 -337z" />
<glyph unicode="&#xd8;" horiz-adv-x="1601" d="M102 780q0 171 40.5 318t126 254.5t217.5 169t315 61.5q111 0 200 -23t163 -65l97 157h155l-144 -234q118 -111 173 -274t55 -364q0 -172 -41 -318.5t-126 -254.5t-217.5 -169t-314.5 -61q-212 0 -364 85l-95 -155h-154l143 232q-117 111 -173 274t-56 367zM301 780 q0 -157 31.5 -277.5t98.5 -201.5l640 1044q-111 71 -270 71q-252 0 -376 -165.5t-124 -470.5zM530 212q107 -68 271 -68q252 0 376 165.5t124 470.5q0 309 -130 474z" />
<glyph unicode="&#xd9;" horiz-adv-x="1545" d="M181 625v934h199v-936q0 -232 101.5 -346.5t291.5 -114.5t291.5 114.5t101.5 346.5v936h199v-934q0 -331 -159.5 -489.5t-432.5 -158.5q-274 0 -433 158.5t-159 489.5zM548 1937l107 145l342 -289l-61 -86z" />
<glyph unicode="&#xda;" horiz-adv-x="1545" d="M181 625v934h199v-936q0 -232 101.5 -346.5t291.5 -114.5t291.5 114.5t101.5 346.5v936h199v-934q0 -331 -159.5 -489.5t-432.5 -158.5q-274 0 -433 158.5t-159 489.5zM549 1793l343 289l106 -145l-389 -230z" />
<glyph unicode="&#xdb;" horiz-adv-x="1545" d="M181 625v934h199v-936q0 -232 101.5 -346.5t291.5 -114.5t291.5 114.5t101.5 346.5v936h199v-934q0 -331 -159.5 -489.5t-432.5 -158.5q-274 0 -433 158.5t-159 489.5zM437 1714l269 327h135l268 -327h-193l-143 197l-144 -197h-192z" />
<glyph unicode="&#xdc;" horiz-adv-x="1545" d="M181 625v934h199v-936q0 -232 101.5 -346.5t291.5 -114.5t291.5 114.5t101.5 346.5v936h199v-934q0 -331 -159.5 -489.5t-432.5 -158.5q-274 0 -433 158.5t-159 489.5zM433 1867q0 46 30 81t88 35t88 -35t30 -81q0 -47 -30 -81.5t-88 -34.5q-57 0 -87.5 34.5t-30.5 81.5z M877 1867q0 46 30.5 81t88.5 35q57 0 87 -35t30 -81q0 -47 -30 -81.5t-87 -34.5q-58 0 -88.5 34.5t-30.5 81.5z" />
<glyph unicode="&#xdd;" horiz-adv-x="1314" d="M37 1559h210l408 -724h5l407 724h210l-520 -895v-664h-199v664zM432 1793l343 289l106 -145l-389 -230z" />
<glyph unicode="&#xde;" horiz-adv-x="1318" d="M185 0v1559h199v-293h312q123 0 219 -36t162.5 -101t100.5 -152t34 -188q0 -104 -36.5 -193t-105 -155t-166.5 -103t-221 -37h-299v-301h-199zM384 486h299q154 0 242.5 78.5t88.5 224.5q0 139 -81 215t-237 76h-312v-594z" />
<glyph unicode="&#xdf;" horiz-adv-x="1385" d="M172 0v988q0 127 36.5 236t108.5 189t178 125t247 45q98 0 182.5 -27.5t147.5 -78.5t98.5 -125.5t35.5 -166.5q0 -64 -24.5 -115.5t-63 -88t-86 -61t-90.5 -34.5q65 -11 126 -43.5t107.5 -86.5t75.5 -132t29 -182q0 -123 -36 -209.5t-98.5 -144t-147 -84.5t-181.5 -27 q-208 0 -336 72l44 145q63 -30 132.5 -47t150.5 -17q125 0 201.5 78.5t76.5 250.5q0 161 -109 254t-319 93h-49v159h159q107 0 177.5 48.5t70.5 148.5q0 69 -24.5 117t-63 76.5t-87 42t-93.5 13.5q-194 0 -288 -114t-94 -309v-988h-194z" />
<glyph unicode="&#xe0;" horiz-adv-x="1166" d="M93 315q0 192 130.5 285.5t359.5 93.5h232v37q0 132 -71 192t-186 60q-99 0 -186 -20.5t-162 -55.5l-44 137q62 37 166.5 67t232.5 30q223 0 328 -112.5t105 -299.5v-729h-146l-37 190q-26 -42 -55 -80.5t-73 -67t-104 -47t-146 -18.5q-71 0 -133.5 21.5t-110 64.5 t-74 106t-26.5 146zM282 315q0 -86 53.5 -135.5t136.5 -49.5q77 0 139 29t107.5 76t71 106t25.5 120v89h-234q-146 0 -222.5 -62t-76.5 -173zM358 1484l107 145l342 -289l-61 -86z" />
<glyph unicode="&#xe1;" horiz-adv-x="1166" d="M93 315q0 192 130.5 285.5t359.5 93.5h232v37q0 132 -71 192t-186 60q-99 0 -186 -20.5t-162 -55.5l-44 137q62 37 166.5 67t232.5 30q223 0 328 -112.5t105 -299.5v-729h-146l-37 190q-26 -42 -55 -80.5t-73 -67t-104 -47t-146 -18.5q-71 0 -133.5 21.5t-110 64.5 t-74 106t-26.5 146zM282 315q0 -86 53.5 -135.5t136.5 -49.5q77 0 139 29t107.5 76t71 106t25.5 120v89h-234q-146 0 -222.5 -62t-76.5 -173zM359 1340l343 289l106 -145l-389 -230z" />
<glyph unicode="&#xe2;" horiz-adv-x="1166" d="M93 315q0 192 130.5 285.5t359.5 93.5h232v37q0 132 -71 192t-186 60q-99 0 -186 -20.5t-162 -55.5l-44 137q62 37 166.5 67t232.5 30q223 0 328 -112.5t105 -299.5v-729h-146l-37 190q-26 -42 -55 -80.5t-73 -67t-104 -47t-146 -18.5q-71 0 -133.5 21.5t-110 64.5 t-74 106t-26.5 146zM247 1261l269 327h135l268 -327h-193l-143 197l-144 -197h-192zM282 315q0 -86 53.5 -135.5t136.5 -49.5q77 0 139 29t107.5 76t71 106t25.5 120v89h-234q-146 0 -222.5 -62t-76.5 -173z" />
<glyph unicode="&#xe3;" horiz-adv-x="1166" d="M93 315q0 192 130.5 285.5t359.5 93.5h232v37q0 132 -71 192t-186 60q-99 0 -186 -20.5t-162 -55.5l-44 137q62 37 166.5 67t232.5 30q223 0 328 -112.5t105 -299.5v-729h-146l-37 190q-26 -42 -55 -80.5t-73 -67t-104 -47t-146 -18.5q-71 0 -133.5 21.5t-110 64.5 t-74 106t-26.5 146zM231 1294q0 245 206 245q49 0 88.5 -17.5t73 -39.5t62 -39t56.5 -17q47 0 62 30t15 76h140q0 -125 -52 -185t-149 -60q-51 0 -90 17t-71.5 39t-61.5 39.5t-62 17.5q-46 0 -62 -33.5t-16 -72.5h-139zM282 315q0 -86 53.5 -135.5t136.5 -49.5q77 0 139 29 t107.5 76t71 106t25.5 120v89h-234q-146 0 -222.5 -62t-76.5 -173z" />
<glyph unicode="&#xe4;" horiz-adv-x="1166" d="M93 315q0 192 130.5 285.5t359.5 93.5h232v37q0 132 -71 192t-186 60q-99 0 -186 -20.5t-162 -55.5l-44 137q62 37 166.5 67t232.5 30q223 0 328 -112.5t105 -299.5v-729h-146l-37 190q-26 -42 -55 -80.5t-73 -67t-104 -47t-146 -18.5q-71 0 -133.5 21.5t-110 64.5 t-74 106t-26.5 146zM243 1414q0 46 30 81t88 35t88 -35t30 -81q0 -47 -30 -81.5t-88 -34.5q-57 0 -87.5 34.5t-30.5 81.5zM282 315q0 -86 53.5 -135.5t136.5 -49.5q77 0 139 29t107.5 76t71 106t25.5 120v89h-234q-146 0 -222.5 -62t-76.5 -173zM687 1414q0 46 30.5 81 t88.5 35q57 0 87 -35t30 -81q0 -47 -30 -81.5t-87 -34.5q-58 0 -88.5 34.5t-30.5 81.5z" />
<glyph unicode="&#xe5;" horiz-adv-x="1166" d="M93 315q0 192 130.5 285.5t359.5 93.5h232v37q0 132 -71 192t-186 60q-99 0 -186 -20.5t-162 -55.5l-44 137q62 37 166.5 67t232.5 30q223 0 328 -112.5t105 -299.5v-729h-146l-37 190q-26 -42 -55 -80.5t-73 -67t-104 -47t-146 -18.5q-71 0 -133.5 21.5t-110 64.5 t-74 106t-26.5 146zM282 315q0 -86 53.5 -135.5t136.5 -49.5q77 0 139 29t107.5 76t71 106t25.5 120v89h-234q-146 0 -222.5 -62t-76.5 -173zM361 1467q0 92 64.5 157t157.5 65t158 -65t65 -157q0 -93 -65 -156t-158 -63t-157.5 63t-64.5 156zM474 1469q0 -53 31.5 -84 t77.5 -31t79 31t33 84t-33 84.5t-79 31.5t-77.5 -31.5t-31.5 -84.5z" />
<glyph unicode="&#xe6;" horiz-adv-x="1837" d="M93 315q0 192 130.5 285.5t359.5 93.5h232v37q0 132 -71 192t-186 60q-99 0 -186 -20.5t-162 -55.5l-44 137q62 37 166.5 67t232.5 30q139 0 223 -45t135 -126q56 81 152 126t226 45q218 0 324 -128.5t106 -343.5q0 -60 -5.5 -106.5t-18.5 -90.5h-709q18 -164 101.5 -251 t251.5 -87q72 0 141.5 14t136.5 46l45 -143q-75 -40 -153.5 -57t-187.5 -17q-183 0 -278 71.5t-145 201.5q-29 -53 -70 -102t-99 -87t-133.5 -61t-170.5 -23q-71 0 -133.5 21.5t-110 64.5t-74 106t-26.5 146zM282 315q0 -86 53.5 -135.5t136.5 -49.5q77 0 139 26.5t107.5 73 t71 105t25.5 126.5v89h-234q-146 0 -222.5 -62t-76.5 -173zM998 616h557v53q0 153 -54.5 238.5t-199.5 85.5q-84 0 -139.5 -29t-90 -79t-52 -119.5t-21.5 -149.5z" />
<glyph unicode="&#xe7;" horiz-adv-x="1064" d="M97 560q0 124 32.5 230t100.5 183.5t171 122.5t244 45q190 0 327 -72l-44 -146q-128 60 -285 60q-90 0 -157 -32t-111 -88.5t-65 -134.5t-21 -168t21 -169t66 -135.5t113.5 -89t163.5 -32.5q71 0 144 15t140 48l44 -144q-75 -39 -157 -57.5t-190 -18.5q-137 0 -237.5 45 t-167.5 124t-99.5 185t-32.5 229zM386 -386l192 298h128l-108 -298h-212z" />
<glyph unicode="&#xe8;" horiz-adv-x="1161" d="M97 560q0 124 28 230t89.5 183.5t157.5 122.5t235 45q229 0 338.5 -128.5t109.5 -343.5q0 -60 -5.5 -106.5t-17.5 -90.5h-743q18 -164 108.5 -251t260.5 -87q71 0 149.5 14t146.5 46l44 -143q-146 -75 -360 -74q-273 0 -407 157.5t-134 425.5zM285 616h590v53 q0 153 -61 238.5t-207 85.5q-84 0 -142 -29t-96 -79t-59 -119.5t-25 -149.5zM356 1484l107 145l342 -289l-61 -86z" />
<glyph unicode="&#xe9;" horiz-adv-x="1161" d="M97 560q0 124 28 230t89.5 183.5t157.5 122.5t235 45q229 0 338.5 -128.5t109.5 -343.5q0 -60 -5.5 -106.5t-17.5 -90.5h-743q18 -164 108.5 -251t260.5 -87q71 0 149.5 14t146.5 46l44 -143q-146 -75 -360 -74q-273 0 -407 157.5t-134 425.5zM285 616h590v53 q0 153 -61 238.5t-207 85.5q-84 0 -142 -29t-96 -79t-59 -119.5t-25 -149.5zM357 1340l343 289l106 -145l-389 -230z" />
<glyph unicode="&#xea;" horiz-adv-x="1161" d="M97 560q0 124 28 230t89.5 183.5t157.5 122.5t235 45q229 0 338.5 -128.5t109.5 -343.5q0 -60 -5.5 -106.5t-17.5 -90.5h-743q18 -164 108.5 -251t260.5 -87q71 0 149.5 14t146.5 46l44 -143q-146 -75 -360 -74q-273 0 -407 157.5t-134 425.5zM245 1261l269 327h135 l268 -327h-193l-143 197l-144 -197h-192zM285 616h590v53q0 153 -61 238.5t-207 85.5q-84 0 -142 -29t-96 -79t-59 -119.5t-25 -149.5z" />
<glyph unicode="&#xeb;" horiz-adv-x="1161" d="M97 560q0 124 28 230t89.5 183.5t157.5 122.5t235 45q229 0 338.5 -128.5t109.5 -343.5q0 -60 -5.5 -106.5t-17.5 -90.5h-743q18 -164 108.5 -251t260.5 -87q71 0 149.5 14t146.5 46l44 -143q-146 -75 -360 -74q-273 0 -407 157.5t-134 425.5zM241 1414q0 46 30 81t88 35 t88 -35t30 -81q0 -47 -30 -81.5t-88 -34.5q-57 0 -87.5 34.5t-30.5 81.5zM285 616h590v53q0 153 -61 238.5t-207 85.5q-84 0 -142 -29t-96 -79t-59 -119.5t-25 -149.5zM685 1414q0 46 30.5 81t88.5 35q57 0 87 -35t30 -81q0 -47 -30 -81.5t-87 -34.5q-58 0 -88.5 34.5 t-30.5 81.5z" />
<glyph unicode="&#xec;" horiz-adv-x="554" d="M53 1484l107 145l342 -289l-61 -86zM181 0v1118h194v-1118h-194z" />
<glyph unicode="&#xed;" horiz-adv-x="554" d="M55 1340l343 289l106 -145l-389 -230zM181 0v1118h194v-1118h-194z" />
<glyph unicode="&#xee;" horiz-adv-x="554" d="M-56 1261l269 327h135l268 -327h-193l-143 197l-144 -197h-192zM181 0v1118h194v-1118h-194z" />
<glyph unicode="&#xef;" horiz-adv-x="554" d="M-60 1414q0 46 30 81t88 35t88 -35t30 -81q0 -47 -30 -81.5t-88 -34.5q-57 0 -87.5 34.5t-30.5 81.5zM181 0v1118h194v-1118h-194zM384 1414q0 46 30.5 81t88.5 35q57 0 87 -35t30 -81q0 -47 -30 -81.5t-87 -34.5q-58 0 -88.5 34.5t-30.5 81.5z" />
<glyph unicode="&#xf0;" horiz-adv-x="1270" d="M93 546q0 120 39.5 227.5t107 189t162.5 130t207 48.5q199 0 310 -118h6q-26 74 -88 151.5t-150 146.5l-282 -131l-45 99l228 107q-116 76 -246 119l67 126q181 -60 329 -174l269 127l51 -99l-227 -106q152 -146 244.5 -350t92.5 -456q0 -125 -36.5 -236t-107 -193.5 t-171 -129.5t-228.5 -47q-123 0 -221.5 45t-168 123t-106 182t-36.5 219zM282 550q0 -83 23.5 -157.5t68.5 -132t107.5 -90.5t143.5 -33q86 0 151.5 39t110.5 101.5t68.5 138.5t23.5 144q0 84 -21 161.5t-63.5 137.5t-108.5 96t-157 36q-85 0 -149.5 -36t-108.5 -96 t-66.5 -140.5t-22.5 -168.5z" />
<glyph unicode="&#xf1;" horiz-adv-x="1305" d="M174 0v1118h162l32 -167q21 31 58 64.5t85.5 61t110 46t131.5 18.5q180 0 282 -119t102 -326v-696h-190v696q0 126 -60.5 197.5t-168.5 71.5q-111 0 -200.5 -51t-149.5 -132v-782h-194zM300 1294q0 245 206 245q49 0 88.5 -17.5t73 -39.5t62 -39t56.5 -17q47 0 62 30 t15 76h140q0 -125 -52 -185t-149 -60q-51 0 -90 17t-71.5 39t-61.5 39.5t-62 17.5q-46 0 -62 -33.5t-16 -72.5h-139z" />
<glyph unicode="&#xf2;" horiz-adv-x="1248" d="M97 560q0 124 31 230t96 183.5t164.5 122.5t236.5 45t236 -45t164 -122.5t96.5 -184t31.5 -229.5t-31.5 -229t-96.5 -185t-164 -124t-236 -45t-236.5 45t-164.5 124t-96 185t-31 229zM289 560q0 -90 20 -169t60 -135.5t104 -89t152 -32.5t151.5 32.5t104 89t60 135.5 t19.5 169q0 91 -19.5 168.5t-60 134t-104 88.5t-151.5 32t-152 -32t-104 -88.5t-60 -134t-20 -168.5zM400 1484l107 145l342 -289l-61 -86z" />
<glyph unicode="&#xf3;" horiz-adv-x="1248" d="M97 560q0 124 31 230t96 183.5t164.5 122.5t236.5 45t236 -45t164 -122.5t96.5 -184t31.5 -229.5t-31.5 -229t-96.5 -185t-164 -124t-236 -45t-236.5 45t-164.5 124t-96 185t-31 229zM289 560q0 -90 20 -169t60 -135.5t104 -89t152 -32.5t151.5 32.5t104 89t60 135.5 t19.5 169q0 91 -19.5 168.5t-60 134t-104 88.5t-151.5 32t-152 -32t-104 -88.5t-60 -134t-20 -168.5zM401 1340l343 289l106 -145l-389 -230z" />
<glyph unicode="&#xf4;" horiz-adv-x="1248" d="M97 560q0 124 31 230t96 183.5t164.5 122.5t236.5 45t236 -45t164 -122.5t96.5 -184t31.5 -229.5t-31.5 -229t-96.5 -185t-164 -124t-236 -45t-236.5 45t-164.5 124t-96 185t-31 229zM289 560q0 -90 20 -169t60 -135.5t104 -89t152 -32.5t151.5 32.5t104 89t60 135.5 t19.5 169q0 91 -19.5 168.5t-60 134t-104 88.5t-151.5 32t-152 -32t-104 -88.5t-60 -134t-20 -168.5zM289 1261l269 327h135l268 -327h-193l-143 197l-144 -197h-192z" />
<glyph unicode="&#xf5;" horiz-adv-x="1248" d="M97 560q0 124 31 230t96 183.5t164.5 122.5t236.5 45t236 -45t164 -122.5t96.5 -184t31.5 -229.5t-31.5 -229t-96.5 -185t-164 -124t-236 -45t-236.5 45t-164.5 124t-96 185t-31 229zM273 1294q0 245 206 245q49 0 88.5 -17.5t73 -39.5t62 -39t56.5 -17q47 0 62 30t15 76 h140q0 -125 -52 -185t-149 -60q-51 0 -90 17t-71.5 39t-61.5 39.5t-62 17.5q-46 0 -62 -33.5t-16 -72.5h-139zM289 560q0 -90 20 -169t60 -135.5t104 -89t152 -32.5t151.5 32.5t104 89t60 135.5t19.5 169q0 91 -19.5 168.5t-60 134t-104 88.5t-151.5 32t-152 -32t-104 -88.5 t-60 -134t-20 -168.5z" />
<glyph unicode="&#xf6;" horiz-adv-x="1248" d="M97 560q0 124 31 230t96 183.5t164.5 122.5t236.5 45t236 -45t164 -122.5t96.5 -184t31.5 -229.5t-31.5 -229t-96.5 -185t-164 -124t-236 -45t-236.5 45t-164.5 124t-96 185t-31 229zM285 1414q0 46 30 81t88 35t88 -35t30 -81q0 -47 -30 -81.5t-88 -34.5 q-57 0 -87.5 34.5t-30.5 81.5zM289 560q0 -90 20 -169t60 -135.5t104 -89t152 -32.5t151.5 32.5t104 89t60 135.5t19.5 169q0 91 -19.5 168.5t-60 134t-104 88.5t-151.5 32t-152 -32t-104 -88.5t-60 -134t-20 -168.5zM729 1414q0 46 30.5 81t88.5 35q57 0 87 -35t30 -81 q0 -47 -30 -81.5t-87 -34.5q-58 0 -88.5 34.5t-30.5 81.5z" />
<glyph unicode="&#xf7;" horiz-adv-x="1323" d="M183 579v157h958v-157h-958zM512 307q0 58 36.5 98.5t104.5 40.5q67 0 103.5 -40t36.5 -99q0 -57 -36.5 -97t-103.5 -40t-104 40t-37 97zM512 1002q0 58 36.5 98.5t104.5 40.5q67 0 103.5 -40.5t36.5 -98.5q0 -57 -36.5 -98t-103.5 -41t-104 41t-37 98z" />
<glyph unicode="&#xf8;" horiz-adv-x="1248" d="M97 560q0 124 31 230t96 183.5t164.5 122.5t236.5 45q120 0 217 -39l86 155h132l-115 -208q106 -79 157 -206.5t51 -282.5q0 -123 -31.5 -229t-96.5 -185t-164 -124t-236 -45t-241 46l-62 -116h-132l97 177q-97 81 -143.5 203t-46.5 273zM289 560q0 -97 21 -176t65 -137 l389 709q-60 28 -139 27q-88 0 -152 -32t-104 -88.5t-60 -134t-20 -168.5zM466 172q68 -38 159 -38q88 0 151.5 32.5t104 89t60 135.5t19.5 169q0 104 -24 187.5t-77 140.5z" />
<glyph unicode="&#xf9;" horiz-adv-x="1290" d="M170 421v697h188v-697q0 -129 57 -201t150 -72q125 0 211.5 65t146.5 151v754h195v-1118h-158l-37 190q-20 -35 -55 -73t-83.5 -69.5t-112 -51t-142.5 -19.5q-81 0 -146.5 24.5t-113 78.5t-74 138.5t-26.5 202.5zM421 1484l107 145l342 -289l-61 -86z" />
<glyph unicode="&#xfa;" horiz-adv-x="1290" d="M170 421v697h188v-697q0 -129 57 -201t150 -72q125 0 211.5 65t146.5 151v754h195v-1118h-158l-37 190q-20 -35 -55 -73t-83.5 -69.5t-112 -51t-142.5 -19.5q-81 0 -146.5 24.5t-113 78.5t-74 138.5t-26.5 202.5zM421 1340l343 289l106 -145l-389 -230z" />
<glyph unicode="&#xfb;" horiz-adv-x="1290" d="M170 421v697h188v-697q0 -129 57 -201t150 -72q125 0 211.5 65t146.5 151v754h195v-1118h-158l-37 190q-20 -35 -55 -73t-83.5 -69.5t-112 -51t-142.5 -19.5q-81 0 -146.5 24.5t-113 78.5t-74 138.5t-26.5 202.5zM309 1261l269 327h135l268 -327h-193l-143 197l-144 -197 h-192z" />
<glyph unicode="&#xfc;" horiz-adv-x="1290" d="M170 421v697h188v-697q0 -129 57 -201t150 -72q125 0 211.5 65t146.5 151v754h195v-1118h-158l-37 190q-20 -35 -55 -73t-83.5 -69.5t-112 -51t-142.5 -19.5q-81 0 -146.5 24.5t-113 78.5t-74 138.5t-26.5 202.5zM305 1414q0 46 30 81t88 35t88 -35t30 -81 q0 -47 -30 -81.5t-88 -34.5q-57 0 -87.5 34.5t-30.5 81.5zM749 1414q0 46 30.5 81t88.5 35q57 0 87 -35t30 -81q0 -47 -30 -81.5t-87 -34.5q-58 0 -88.5 34.5t-30.5 81.5z" />
<glyph unicode="&#xfd;" horiz-adv-x="1283" d="M170 444v674h188v-674q0 -130 56 -201t149 -71q125 0 210.5 64.5t142.5 149.5v732h195v-1023q0 -285 -138 -423t-383 -138q-106 0 -210 30.5t-170 71.5l49 156q66 -39 146.5 -61.5t170.5 -22.5q82 0 145 19t106 64t66 120t23 186v115q-20 -35 -55 -72.5t-82.5 -68.5 t-109.5 -51t-141 -20q-82 0 -147.5 24.5t-111.5 78.5t-72.5 139t-26.5 202zM417 1340l343 289l106 -145l-389 -230z" />
<glyph unicode="&#xfe;" horiz-adv-x="1294" d="M176 -442v2001h195v-608q20 31 57.5 64.5t86 61t108.5 46t130 18.5q113 0 196 -48.5t136.5 -128.5t79 -180.5t25.5 -204.5q0 -292 -127.5 -447t-335.5 -155q-60 0 -115.5 17t-103 46t-82.5 68.5t-55 81.5v-632h-195zM371 548q0 -90 27.5 -163t72.5 -125t104 -79.5 t121 -27.5q60 0 116 22t97.5 72.5t66 132t24.5 199.5q0 192 -77.5 289t-207.5 97q-101 0 -192.5 -52t-151.5 -131v-234z" />
<glyph unicode="&#xff;" horiz-adv-x="1283" d="M170 444v674h188v-674q0 -130 56 -201t149 -71q125 0 210.5 64.5t142.5 149.5v732h195v-1023q0 -285 -138 -423t-383 -138q-106 0 -210 30.5t-170 71.5l49 156q66 -39 146.5 -61.5t170.5 -22.5q82 0 145 19t106 64t66 120t23 186v115q-20 -35 -55 -72.5t-82.5 -68.5 t-109.5 -51t-141 -20q-82 0 -147.5 24.5t-111.5 78.5t-72.5 139t-26.5 202zM301 1414q0 46 30 81t88 35t88 -35t30 -81q0 -47 -30 -81.5t-88 -34.5q-57 0 -87.5 34.5t-30.5 81.5zM745 1414q0 46 30.5 81t88.5 35q57 0 87 -35t30 -81q0 -47 -30 -81.5t-87 -34.5 q-58 0 -88.5 34.5t-30.5 81.5z" />
<glyph unicode="&#x131;" horiz-adv-x="554" d="M181 0v1118h194v-1118h-194z" />
<glyph unicode="&#x141;" horiz-adv-x="1188" d="M49 588v185l136 58v728h199v-640l338 148v-186l-338 -148v-548h736v-185h-935v645z" />
<glyph unicode="&#x142;" horiz-adv-x="554" d="M58 588v185l123 53v733h194v-647l122 53v-185l-122 -53v-727h-194v641z" />
<glyph unicode="&#x152;" horiz-adv-x="2255" d="M102 780q0 171 40.5 318t123.5 254.5t211 169t300 61.5q80 0 143 -15t111.5 -40.5t85 -58t60.5 -67.5v157h954v-182h-754v-479h708v-183h-708v-532h768v-183h-968v157q-53 -69 -145.5 -124.5t-245.5 -55.5q-178 0 -306.5 61t-212.5 169t-124.5 255t-40.5 318zM301 780 q0 -305 124 -470.5t376 -165.5q141 0 232 51.5t144 155.5v837q-53 104 -144 166t-232 62q-252 0 -376 -165t-124 -471z" />
<glyph unicode="&#x153;" horiz-adv-x="1948" d="M97 560q0 124 31 230t96 183.5t164.5 122.5t236.5 45q143 0 231.5 -54.5t134.5 -128.5q60 86 158.5 134.5t243.5 48.5q230 0 339.5 -128.5t109.5 -343.5q0 -60 -5.5 -106.5t-17.5 -90.5h-743q18 -164 108.5 -251t259.5 -87q71 0 150.5 14t145.5 46l44 -143 q-146 -75 -358 -74q-150 0 -258 49t-175 138q-30 -42 -63.5 -76.5t-77.5 -58.5t-100 -38t-127 -14q-137 0 -236.5 45t-164.5 124t-96 185t-31 229zM289 560q0 -90 20 -169t60 -135.5t104 -89t152 -32.5q218 0 296 176q-18 53 -27.5 118t-9.5 132q0 65 7 126.5t23 114.5 q-39 84 -108.5 133t-180.5 49q-88 0 -152 -32t-104 -88.5t-60 -134t-20 -168.5zM1071 616h590v53q0 153 -61 238.5t-207 85.5q-83 0 -141 -29t-96 -79t-59 -119.5t-26 -149.5z" />
<glyph unicode="&#x160;" horiz-adv-x="1226" d="M115 64l51 165q65 -32 160 -53t213 -21q84 0 153.5 15t119 46t78.5 81t29 120q0 69 -30 115.5t-80 79.5t-117 57.5t-139 48.5q-69 22 -146.5 53.5t-142.5 81.5t-107 125t-42 186q0 90 30.5 166.5t95 133.5t165.5 88t239 31q115 0 208.5 -22t173.5 -61l-51 -164 q-66 32 -151 50.5t-180 18.5q-181 0 -259.5 -66.5t-78.5 -170.5q0 -64 28.5 -108t76 -76.5t109.5 -55.5t132 -47q79 -28 161 -62.5t147.5 -87.5t107.5 -130.5t42 -188.5q0 -110 -42 -192.5t-117 -137t-180 -80t-233 -25.5q-148 0 -247.5 24.5t-176.5 62.5zM278 2036h192 l144 -196l143 196h193l-268 -326h-135z" />
<glyph unicode="&#x161;" horiz-adv-x="1001" d="M106 49l44 145q62 -30 141 -47t164 -17q137 0 195.5 49.5t58.5 116.5q0 44 -21 75t-56 55.5t-81.5 42t-99.5 33.5q-77 22 -139 50.5t-107.5 68t-69.5 93.5t-24 128q0 141 108 220t300 79q95 0 183.5 -17.5t158.5 -54.5l-44 -146q-62 31 -131.5 48t-151.5 17 q-125 0 -180.5 -41.5t-55.5 -104.5q0 -75 58.5 -111.5t157.5 -68.5q95 -30 167 -63.5t119.5 -76.5t71.5 -98.5t24 -129.5q0 -144 -103.5 -230.5t-326.5 -86.5q-111 0 -202.5 17t-157.5 55zM164 1583h192l144 -196l143 196h193l-268 -326h-135z" />
<glyph unicode="&#x178;" horiz-adv-x="1314" d="M37 1559h210l408 -724h5l407 724h210l-520 -895v-664h-199v664zM317 1867q0 46 30 81t88 35t88 -35t30 -81q0 -47 -30 -81.5t-88 -34.5q-57 0 -87.5 34.5t-30.5 81.5zM761 1867q0 46 30.5 81t88.5 35q57 0 87 -35t30 -81q0 -47 -30 -81.5t-87 -34.5q-58 0 -88.5 34.5 t-30.5 81.5z" />
<glyph unicode="&#x17d;" horiz-adv-x="1267" d="M93 0v139l795 1238h-740v182h1000v-139l-797 -1237h811v-183h-1069zM321 2036h192l144 -196l143 196h193l-268 -326h-135z" />
<glyph unicode="&#x17e;" horiz-adv-x="1045" d="M97 0v111l590 849h-546v158h782v-111l-590 -850h612v-157h-848zM187 1583h192l144 -196l143 196h193l-268 -326h-135z" />
<glyph unicode="&#x192;" horiz-adv-x="1323" d="M115 -139l68 153q53 -23 115 -23q88 0 125.5 69.5t55.5 193.5l74 552h-213v113h230l22 171q14 98 41 178.5t72 137t113 89.5t167 33q53 0 94 -12t74 -30l-70 -153q-54 23 -116 23q-88 0 -124.5 -69.5t-56.5 -193.5l-24 -174h272v-113h-286l-75 -549q-13 -98 -39.5 -178.5 t-72 -137t-113.5 -89.5t-168 -33q-53 0 -93.5 12t-71.5 30z" />
<glyph unicode="&#x2c6;" horiz-adv-x="693" d="M11 1261l269 327h135l268 -327h-193l-143 197l-144 -197h-192z" />
<glyph unicode="&#x2c7;" horiz-adv-x="693" d="M11 1583h192l144 -196l143 196h193l-268 -326h-135z" />
<glyph unicode="&#x2d8;" horiz-adv-x="693" d="M11 1616h144q11 -75 62.5 -121t133.5 -46t132.5 46t62.5 121h137q-7 -65 -30.5 -122t-65 -98.5t-101.5 -66t-137 -24.5q-79 0 -139 24.5t-101.5 66t-66 98t-31.5 122.5z" />
<glyph unicode="&#x2d9;" horiz-adv-x="693" d="M218 1420q0 54 33.5 91t95.5 37t96 -36.5t34 -91.5q0 -53 -34 -89.5t-96 -36.5t-95.5 36.5t-33.5 89.5z" />
<glyph unicode="&#x2da;" horiz-adv-x="693" d="M125 1467q0 92 64.5 157t157.5 65t158 -65t65 -157q0 -93 -65 -156t-158 -63t-157.5 63t-64.5 156zM238 1469q0 -53 31.5 -84t77.5 -31t79 31t33 84t-33 84.5t-79 31.5t-77.5 -31.5t-31.5 -84.5z" />
<glyph unicode="&#x2db;" horiz-adv-x="693" d="M278 5h127l192 -299h-211z" />
<glyph unicode="&#x2dc;" horiz-adv-x="693" d="M-5 1294q0 245 206 245q49 0 88.5 -17.5t73 -39.5t62 -39t56.5 -17q47 0 62 30t15 76h140q0 -125 -52 -185t-149 -60q-51 0 -90 17t-71.5 39t-61.5 39.5t-62 17.5q-46 0 -62 -33.5t-16 -72.5h-139z" />
<glyph unicode="&#x2dd;" horiz-adv-x="693" d="M79 1275l201 324h215l-268 -324h-148zM451 1275l202 324h215l-267 -324h-150z" />
<glyph unicode="&#x3a9;" horiz-adv-x="1740" d="M162 884q0 159 49.5 288t141 220.5t222.5 141t295 49.5q162 0 294 -49.5t223.5 -141t141.5 -220t50 -288.5q0 -133 -38.5 -243.5t-94 -200t-118 -156t-113.5 -110.5h278v-174h-508v128q56 44 124 114t128.5 163.5t101.5 206t41 238.5q0 261 -135.5 404.5t-369.5 143.5 q-241 0 -378 -143.5t-137 -404.5q0 -126 41 -238.5t101.5 -206t128 -163.5t124.5 -114v-128h-508v174h278q-50 44 -113 110.5t-118.5 156t-93.5 201t-38 242.5z" />
<glyph unicode="&#x3c0;" horiz-adv-x="1385" d="M75 1055q20 14 52 26t70.5 20t79.5 13.5t79 5.5h931v-155h-273v-676q0 -69 31 -112t92 -43q46 0 68.5 5t46.5 14l42 -133q-33 -18 -80.5 -28t-100.5 -10q-84 0 -139 25.5t-88.5 70.5t-46.5 102.5t-13 124.5v660h-282v-499q0 -56 -6 -125.5t-16 -135.5t-25.5 -121.5 t-33.5 -83.5h-190q21 35 37.5 94t25.5 127t13.5 133t4.5 112v499q-82 -2 -141.5 -18.5t-108.5 -41.5z" />
<glyph unicode="&#xe00;" horiz-adv-x="450" />
<glyph unicode="&#xe01;" horiz-adv-x="1396" d="M111 930q18 75 70.5 145.5t128.5 124.5t174.5 86.5t209.5 32.5q132 0 231.5 -37t165.5 -104t99.5 -158.5t33.5 -202.5v-817h-199v817q0 166 -85.5 248.5t-245.5 82.5q-132 0 -234 -57t-138 -149l175 -162q-62 -33 -92 -80t-30 -121v-579h-199v550q0 67 32.5 127.5 t92.5 90.5z" />
<glyph unicode="&#xe02;" horiz-adv-x="1285" d="M150 419v178q0 66 36.5 124.5t80 109t79.5 96t36 87.5v55q0 26 -13 40.5t-45 14.5h-160v172h183q125 0 175 -56.5t50 -153.5v-70q0 -62 -36.5 -118t-77.5 -106t-77 -98.5t-36 -96.5v-178q0 -125 66 -199t223 -74q143 0 211.5 63.5t68.5 234.5v852h199v-850 q0 -227 -112.5 -348t-366.5 -121q-128 0 -219 33.5t-150 93.5t-87 140t-28 175z" />
<glyph unicode="&#xe03;" horiz-adv-x="1294" d="M79 1144v175l162 -83q22 35 66 54.5t91 19.5q101 0 148.5 -61t47.5 -166v-46q0 -77 -37.5 -136t-83 -110t-82.5 -97.5t-37 -96.5v-178q0 -125 66 -199t223 -74q143 0 211.5 63.5t68.5 234.5v852h199v-850q0 -227 -112 -348t-367 -121q-128 0 -219 33.5t-150 93.5t-87 140 t-28 175v178q0 66 38.5 122t85 108t84.5 102t38 108v43q0 26 -12.5 42.5t-45.5 16.5q-60 0 -86 -77z" />
<glyph unicode="&#xe04;" horiz-adv-x="1433" d="M174 0v822q0 106 35.5 196.5t105 157.5t170 105t233.5 38q132 0 232.5 -38t170 -105t105 -157.5t35.5 -196.5v-822h-199v824q0 146 -86 235t-258 89q-174 0 -259.5 -89t-85.5 -235v-283q30 67 94.5 114t161.5 47h164v-174h-164q-92 0 -159.5 -52t-96.5 -156v-320h-199z " />
<glyph unicode="&#xe05;" horiz-adv-x="1457" d="M176 0v894q0 172 82 282.5t237 142.5l234 -155l234 155q155 -33 237.5 -144t82.5 -281v-894h-200v907q0 89 -34.5 144t-97.5 80l-222 -126l-222 126q-62 -26 -97 -80.5t-35 -143.5v-366q31 67 97.5 114t163.5 47h165v-174h-165q-92 0 -161.5 -52t-99.5 -156v-320h-199z " />
<glyph unicode="&#xe06;" horiz-adv-x="1402" d="M75 1144v175l161 -83q23 35 67 54.5t90 19.5q102 0 149.5 -61t47.5 -166v-46q0 -81 -33.5 -145t-73 -117t-73 -101.5t-33.5 -99.5v-162q23 -53 63.5 -101t91.5 -84.5t107.5 -57.5t115.5 -21q146 0 210 87t64 251v810h199v-812q0 -234 -110.5 -370.5t-340.5 -136.5 q-139 0 -236 58t-164 155l-11 -190h-187v574q0 67 34 125t76 112.5t76.5 108.5t34.5 117v43q0 26 -12.5 42.5t-45.5 16.5q-60 0 -85 -77z" />
<glyph unicode="&#xe07;" horiz-adv-x="1302" d="M33 1296h203l343 -1124h28q77 0 144.5 33t120.5 97t84.5 159t31.5 217q0 128 -21.5 217.5t-60 145.5t-90.5 81.5t-110 25.5q-39 0 -76.5 -5.5t-64.5 -18.5l-31 161q38 18 90 26t91 8q104 0 191 -42.5t149.5 -125t97.5 -201.5t35 -272q0 -157 -45.5 -282t-124.5 -213 t-185 -135.5t-232 -47.5h-177z" />
<glyph unicode="&#xe08;" horiz-adv-x="1254" d="M33 1137q97 81 228.5 131.5t277.5 50.5q301 0 450.5 -167t149.5 -463q0 -152 -42 -278t-118 -217.5t-181.5 -142.5t-232.5 -51h-163l-124 521q-7 30 -21 40.5t-39 10.5h-88v170h104q97 0 150 -36.5t79 -145.5l90 -388h30q69 0 133 34.5t113.5 100.5t79.5 163t30 222 q0 243 -104 349.5t-294 106.5q-132 0 -247 -47.5t-199 -119.5z" />
<glyph unicode="&#xe09;" horiz-adv-x="1365" d="M79 1139q111 79 249 129.5t308 50.5q278 0 417 -147t139 -397v-775h-187l-12 190q-28 -42 -60 -80.5t-77.5 -67t-108 -47t-146.5 -18.5q-192 0 -290.5 99.5t-98.5 294.5v150q0 51 -42 51h-75v170h134q82 0 130 -42t48 -147v-176q0 -117 56 -173t180 -56q58 0 111.5 21 t98.5 57.5t79.5 84t60.5 101.5v363q0 181 -89 277t-266 96q-145 0 -270 -48.5t-218 -116.5z" />
<glyph unicode="&#xe0a;" horiz-adv-x="1285" d="M150 419v178q0 66 36.5 124.5t80 109t79.5 96t36 87.5v55q0 26 -13 40.5t-45 14.5h-160v172h183q125 0 175 -56.5t50 -153.5v-70q0 -62 -36.5 -118t-77.5 -106t-77 -98.5t-36 -96.5v-178q0 -125 66 -199t223 -74q143 0 211.5 63.5t68.5 234.5v234q0 97 -40.5 139 t-107.5 42h-44l-28 83l245 354h218l-261 -340q93 -18 155 -91.5t62 -184.5v-234q0 -227 -112.5 -348t-366.5 -121q-128 0 -219 33.5t-150 93.5t-87 140t-28 175z" />
<glyph unicode="&#xe0b;" horiz-adv-x="1294" d="M79 1144v175l162 -83q22 35 66 54.5t91 19.5q101 0 148.5 -61t47.5 -166v-46q0 -77 -37.5 -136t-83 -110t-82.5 -97.5t-37 -96.5v-178q0 -125 66 -199t223 -74q143 0 211.5 63.5t68.5 234.5v234q0 97 -40.5 139t-107.5 42h-44l-27 83l245 354h217l-261 -340 q93 -18 155 -91.5t62 -184.5v-234q0 -227 -112 -348t-367 -121q-128 0 -219 33.5t-150 93.5t-87 140t-28 175v178q0 66 38.5 122t85 108t84.5 102t38 108v43q0 26 -12.5 42.5t-45.5 16.5q-60 0 -86 -77z" />
<glyph unicode="&#xe0c;" horiz-adv-x="2133" d="M111 930q18 75 68 145.5t123 124.5t167 86.5t200 32.5q128 0 222 -37t157 -104t94 -158.5t31 -202.5v-405q23 -53 62.5 -101t85.5 -84.5t97 -57.5t100 -21q127 0 185.5 87t58.5 251v810h199v-812q0 -237 -103.5 -372t-316.5 -135q-123 0 -211.5 58t-156.5 155l-11 -190 h-188v817q0 166 -79.5 248.5t-225.5 82.5q-118 0 -214.5 -57t-132.5 -149l175 -162q-62 -33 -92 -80t-30 -121v-352q0 -28 10.5 -44.5t42.5 -16.5h125v-166h-178q-95 0 -147 59t-52 149v342q0 67 32.5 127.5t92.5 90.5z" />
<glyph unicode="&#xe0d;" horiz-adv-x="2133" d="M111 930q18 75 68 145.5t123 124.5t167 86.5t200 32.5q128 0 222 -37t157 -104t94 -158.5t31 -202.5v-373q0 -130 62.5 -201t182.5 -71q126 0 210.5 65.5t133.5 148.5v910h199v-1155q0 -136 -38.5 -234.5t-107 -161.5t-164.5 -92.5t-211 -29.5q-135 0 -242.5 29.5 t-172.5 71.5l49 156q66 -39 155.5 -61t179.5 -22q81 0 146 12t111.5 49.5t71 106t24.5 179.5v68q-18 -35 -50 -72.5t-78 -68.5t-109 -51t-141 -20q-81 0 -154 24.5t-130.5 78.5t-91.5 139t-34 202v373q0 166 -79.5 248.5t-225.5 82.5q-118 0 -214.5 -57t-132.5 -149 l175 -162q-62 -33 -92 -80t-30 -121v-352q0 -28 10.5 -44.5t42.5 -16.5h125v-166h-178q-95 0 -147 59t-52 149v342q0 67 32.5 127.5t92.5 90.5z" />
<glyph unicode="&#xe0e;" horiz-adv-x="1420" d="M69 0v166h101q32 0 42.5 16.5t10.5 44.5v307q0 67 32 127.5t92 91.5l-213 177q19 75 71 145.5t128 124.5t175 86.5t210 32.5q132 0 231.5 -37t165 -104t99.5 -158.5t34 -202.5v-1280h-248q-58 53 -132.5 90t-169.5 37q-115 0 -192.5 -33t-154.5 -94l-53 153 q67 60 162.5 102t212.5 42q111 0 213 -48.5t163 -112.5v1144q0 166 -86 248.5t-245 82.5q-133 0 -234.5 -57t-138.5 -149l199 -178q-63 -33 -93 -80.5t-30 -120.5v-355q0 -90 -51.5 -150t-146.5 -58h-154z" />
<glyph unicode="&#xe0f;" horiz-adv-x="1420" d="M69 0v166h101q32 0 42.5 16.5t10.5 44.5v307q0 67 32 127.5t92 91.5l-213 177q19 75 71 145.5t128 124.5t175 86.5t210 32.5q132 0 231.5 -37t165 -104t99.5 -158.5t34 -202.5v-1280h-190l-276 165q-37 -82 -118 -130.5t-171 -48.5q-84 0 -161.5 20t-125.5 52l51 169 q48 -33 111 -58.5t113 -25.5q98 0 170.5 66t90.5 164l307 -183v1090q0 166 -86 248.5t-245 82.5q-133 0 -234.5 -57t-138.5 -149l199 -178q-63 -33 -93 -80.5t-30 -120.5v-355q0 -90 -51.5 -150t-146.5 -58h-154z" />
<glyph unicode="&#xe10;" horiz-adv-x="1254" d="M33 1137q97 81 228.5 131.5t277.5 50.5q172 0 298 -67l117 135h226l-201 -241q159 -172 160 -457q0 -152 -42 -278t-118 -217.5t-181.5 -142.5t-232.5 -51h-163l-124 521q-7 30 -21 40.5t-39 10.5h-88v170h104q97 0 150 -36.5t79 -145.5l90 -388h30q69 0 133 34.5 t113.5 100.5t79.5 163t30 222q0 238 -103 347t-295 109q-132 0 -247 -47.5t-199 -119.5zM146 -287h164q74 0 128.5 31t100.5 82q46 -51 92.5 -82t125.5 -31h122v134h190v-310h-303q-81 0 -137.5 33.5t-89.5 78.5q-31 -47 -95 -79.5t-146 -32.5h-152v176z" />
<glyph unicode="&#xe11;" horiz-adv-x="1409" d="M97 1144v175l139 -83q23 35 67 54.5t90 19.5q79 0 123 -50t47 -116q46 68 128 121.5t199 53.5q151 0 247.5 -108.5t96.5 -322.5v-888h-200v888q0 139 -43.5 199.5t-136.5 60.5q-83 0 -169 -64t-154 -160t-111 -207.5t-43 -212.5v-504h-198v504q0 84 20.5 156.5t54 135.5 t73 115t73.5 94v75q0 26 -12.5 42.5t-45.5 16.5q-60 0 -85 -77z" />
<glyph unicode="&#xe12;" horiz-adv-x="2283" d="M115 655q0 135 34 247t95 199t148 142t191 76l185 -146l190 146q155 -33 237 -144t82 -281v-482q23 -53 64 -101t89.5 -84.5t104 -57.5t110.5 -21q142 0 204.5 87t62.5 251v810h199v-812q0 -237 -108 -372t-334 -135q-137 0 -230.5 58t-161.5 155l-11 -190h-188v907 q0 89 -34.5 144t-96.5 80l-179 -117l-174 117q-123 -26 -201 -145.5t-78 -330.5q0 -141 30 -237t77.5 -154t106.5 -82.5t118 -24.5q49 0 85 7.5t74 20.5l36 -157q-40 -18 -93 -30t-111 -12q-110 0 -205 37t-165.5 118.5t-111.5 207.5t-41 306z" />
<glyph unicode="&#xe13;" horiz-adv-x="2133" d="M111 930q18 75 68 145.5t123 124.5t167 86.5t200 32.5q128 0 222 -37t157 -104t94 -158.5t31 -202.5v-400q0 -125 53.5 -197t155.5 -72q62 0 118.5 21t105 57.5t87 84t63.5 101.5v884h200v-1296h-188l-12 190q-67 -97 -156 -155t-228 -58q-197 0 -297.5 117.5 t-100.5 320.5v402q0 166 -79.5 248.5t-225.5 82.5q-118 0 -214.5 -57t-132.5 -149l175 -162q-62 -33 -92 -80t-30 -121v-352q0 -28 10.5 -44.5t42.5 -16.5h125v-166h-178q-95 0 -147 59t-52 149v342q0 67 32.5 127.5t92.5 90.5z" />
<glyph unicode="&#xe14;" horiz-adv-x="1446" d="M115 634q0 146 38.5 270.5t115 216t192 145t270.5 53.5q141 0 243 -43.5t168 -120.5t98 -176.5t32 -210.5v-768h-198v771q0 81 -20 150.5t-61.5 119t-105 78.5t-151.5 29q-206 0 -313.5 -135.5t-107.5 -378.5q0 -135 31 -225.5t81 -146.5t110 -80.5t121 -24.5 q48 0 83.5 7.5t73.5 20.5l37 -157q-40 -18 -93 -30t-112 -12q-103 0 -200.5 39t-170.5 119.5t-117 202t-44 287.5z" />
<glyph unicode="&#xe15;" horiz-adv-x="1478" d="M115 645q0 137 35 253t98.5 203t151.5 142t192 76l194 -146l199 146q155 -33 237.5 -144t82.5 -281v-894h-199v907q0 89 -34.5 144t-97.5 80l-188 -117l-181 117q-124 -26 -207 -148t-83 -338q0 -139 31 -231t81 -150t110 -82.5t121 -24.5q48 0 83.5 7.5t73.5 20.5 l37 -157q-40 -18 -93 -30t-112 -12q-110 0 -206 37t-169 117t-115 205t-42 300z" />
<glyph unicode="&#xe16;" horiz-adv-x="1402" d="M111 930q18 75 70.5 145.5t130 124.5t175.5 86.5t209 32.5q132 0 231.5 -37t167 -104t100.5 -158.5t33 -202.5v-817h-199v817q0 166 -86 248.5t-247 82.5q-132 0 -235 -57t-139 -149l175 -162q-62 -33 -92 -80t-30 -121v-352q0 -28 10.5 -44.5t42.5 -16.5h125v-166h-178 q-95 0 -147 59t-52 149v342q0 67 32.5 127.5t92.5 90.5z" />
<glyph unicode="&#xe17;" horiz-adv-x="1420" d="M179 0v1296h187l11 -190q35 40 82.5 78t105.5 68.5t125 48.5t141 18q101 0 179 -34.5t131 -99.5t80 -154t27 -200v-831h-199v831q0 166 -63 241.5t-164 75.5q-75 0 -140.5 -22t-124 -58t-104.5 -84.5t-76 -99.5v-884h-198z" />
<glyph unicode="&#xe18;" horiz-adv-x="1285" d="M106 976q0 153 139 248t391 95q278 0 475 -102l-40 -159q-88 46 -198.5 71.5t-231.5 25.5q-174 0 -258.5 -51t-84.5 -128q0 -64 36.5 -93t89.5 -38l451 -65q141 -21 218.5 -93.5t77.5 -214.5v-112q0 -113 -30 -187t-94 -116.5t-164.5 -59.5t-239.5 -17q-141 0 -240.5 20 t-163 66.5t-94 124.5t-30.5 191v146h192v-146q0 -71 19 -117.5t58.5 -73.5t104 -37t154.5 -10q93 0 158 7.5t104.5 32t56.5 66.5t17 110v115q0 62 -32.5 92t-92.5 40l-452 62q-132 18 -214 91t-82 216z" />
<glyph unicode="&#xe19;" horiz-adv-x="1402" d="M174 461v835h199v-833q0 -164 64.5 -239.5t209.5 -75.5q58 0 115 21t108 57.5t90.5 84t64.5 101.5v884h199v-1296h-187l-12 190q-67 -97 -166.5 -155t-257.5 -58q-212 0 -319.5 124t-107.5 360z" />
<glyph unicode="&#xe1a;" horiz-adv-x="1396" d="M174 477v819h199v-819q0 -153 79.5 -241t245.5 -88t246.5 88t80.5 241v819h199v-819q0 -241 -134 -370.5t-392 -129.5q-256 0 -390 129.5t-134 370.5z" />
<glyph unicode="&#xe1b;" horiz-adv-x="1396" d="M174 477v819h199v-819q0 -153 79.5 -241t245.5 -88t246.5 88t80.5 241v1259h199v-1259q0 -241 -134 -370.5t-392 -129.5q-256 0 -390 129.5t-134 370.5z" />
<glyph unicode="&#xe1c;" horiz-adv-x="1526" d="M179 0v1088q0 91 51.5 150.5t146.5 57.5h153v-172h-99q-58 0 -58 -60v-459q0 -107 -4.5 -197t-17.5 -183h5q18 67 43 139.5t60 137.5l230 430h159l223 -433q33 -64 55 -129t45 -145h4q-13 93 -16.5 182.5t-3.5 197.5v691h194v-1296h-212l-295 585q-28 53 -47.5 109 t-23.5 81h-5q-4 -26 -24 -81.5t-48 -108.5l-303 -585h-212z" />
<glyph unicode="&#xe1d;" horiz-adv-x="1526" d="M179 0v1088q0 91 51.5 150.5t146.5 57.5h153v-172h-99q-58 0 -58 -60v-459q0 -107 -4.5 -197t-17.5 -183h5q18 67 43 139.5t60 137.5l230 430h159l223 -433q33 -64 55 -129t45 -145h4q-13 93 -16.5 182.5t-3.5 197.5v1131h194v-1736h-212l-295 585q-28 53 -47.5 109 t-23.5 81h-5q-4 -26 -24 -81.5t-48 -108.5l-303 -585h-212z" />
<glyph unicode="&#xe1e;" horiz-adv-x="1643" d="M84 1296h201l117 -736q7 -48 13 -86.5t9.5 -77t7 -82t5.5 -106.5h7q18 115 36.5 203t44.5 177l211 644h171l211 -644q26 -89 44 -176.5t37 -203.5h7q2 62 5.5 106t7 82.5t9.5 77t13 86.5l117 736h201l-214 -1296h-221l-221 664q-26 82 -46 167t-33 201h-5 q-13 -116 -33 -201.5t-46 -166.5l-221 -664h-221z" />
<glyph unicode="&#xe1f;" horiz-adv-x="1643" d="M84 1296h201l117 -736q7 -48 13 -86.5t9.5 -77t7 -82t5.5 -106.5h7q18 115 36.5 203t44.5 177l211 644h171l217 -644q33 -89 54 -176.5t39 -203.5h7q2 58 3 102t5 83.5t7.5 79t8.5 87.5l119 1176h183l-183 -1736h-219l-234 664q-26 82 -51.5 167t-38.5 201h-5 q-13 -116 -33 -201.5t-46 -166.5l-221 -664h-221z" />
<glyph unicode="&#xe20;" horiz-adv-x="1420" d="M69 0v166h101q32 0 42.5 16.5t10.5 44.5v307q0 67 32 127.5t92 91.5l-213 177q19 75 71 145.5t128 124.5t175 86.5t210 32.5q132 0 231.5 -37t165 -104t99.5 -158.5t34 -202.5v-817h-199v817q0 166 -86 248.5t-245 82.5q-133 0 -234.5 -57t-138.5 -149l199 -178 q-63 -33 -93 -80.5t-30 -120.5v-355q0 -90 -51.5 -150t-146.5 -58h-154z" />
<glyph unicode="&#xe21;" horiz-adv-x="1402" d="M179 0v1296h198v-884q23 -53 63.5 -101t91.5 -84.5t107.5 -57.5t115.5 -21q146 0 210 87t64 251v810h199v-812q0 -234 -110.5 -370.5t-340.5 -136.5q-139 0 -236 58t-164 155l-11 -190h-187z" />
<glyph unicode="&#xe22;" horiz-adv-x="1341" d="M106 396q0 115 58.5 197.5t157.5 115.5q-88 22 -152 96t-64 206q0 130 88 214.5t243 84.5q65 0 116.5 -11.5t87.5 -28.5l-23 -166q-22 11 -63 23t-85 12q-86 0 -129 -43t-43 -111q0 -46 20 -79.5t50 -57.5t67 -35.5t75 -11.5h196l16 -172h-183q-102 0 -170 -59.5 t-68 -162.5q0 -62 26.5 -111t71.5 -82t104.5 -49.5t123.5 -16.5q174 0 258.5 87t84.5 251v810h198v-812q0 -113 -29.5 -207t-96 -160t-169 -103t-250.5 -37q-246 0 -381.5 108.5t-135.5 310.5z" />
<glyph unicode="&#xe23;" horiz-adv-x="1140" d="M102 974q0 164 131 254.5t355 90.5q108 0 212.5 -22t184.5 -63l-50 -158q-142 74 -328 74q-146 0 -228.5 -50.5t-82.5 -125.5q0 -42 23 -74t62.5 -56.5t90.5 -44t109 -37.5q108 -35 193 -73.5t142.5 -87t87.5 -111t30 -148.5q0 -163 -124 -264t-380 -101q-128 0 -235 23 t-182 67l49 156q71 -35 164 -56t195 -21q157 0 238 61.5t81 139.5q0 49 -29 86t-76.5 66t-106 50t-118.5 39q-89 26 -164 57t-129.5 76t-84.5 106t-30 147z" />
<glyph unicode="&#xe24;" horiz-adv-x="1402" d="M111 930q18 75 70.5 145.5t130 124.5t175.5 86.5t209 32.5q132 0 231.5 -37t167 -104t100.5 -158.5t33 -202.5v-1280h-199v1280q0 166 -86 248.5t-247 82.5q-132 0 -235 -57t-139 -149l175 -162q-62 -33 -92 -80t-30 -121v-352q0 -28 10.5 -44.5t42.5 -16.5h125v-166 h-178q-95 0 -147 59t-52 149v342q0 67 32.5 127.5t92.5 90.5z" />
<glyph unicode="&#xe25;" horiz-adv-x="1332" d="M84 364q0 203 143.5 318t432.5 115h300v29q0 153 -71.5 240t-254.5 87q-132 0 -245 -39.5t-197 -97.5l-64 141q35 31 89 59.5t122 52t147 37t164 13.5q249 0 379 -133t130 -358v-828h-199v625h-324q-164 0 -259 -64t-95 -195q0 -113 67.5 -167.5t169.5 -54.5 q48 0 102.5 10t96.5 29l32 -165q-51 -18 -118 -29.5t-135 -11.5q-88 0 -163 24.5t-130.5 71.5t-87.5 120.5t-32 170.5z" />
<glyph unicode="&#xe26;" horiz-adv-x="1420" d="M69 0v166h101q32 0 42.5 16.5t10.5 44.5v307q0 67 32 127.5t92 91.5l-213 177q19 75 71 145.5t128 124.5t175 86.5t210 32.5q132 0 231.5 -37t165 -104t99.5 -158.5t34 -202.5v-1280h-199v1280q0 166 -86 248.5t-245 82.5q-133 0 -234.5 -57t-138.5 -149l199 -178 q-63 -33 -93 -80.5t-30 -120.5v-355q0 -90 -51.5 -150t-146.5 -58h-154z" />
<glyph unicode="&#xe27;" horiz-adv-x="1217" d="M84 1188q92 60 208.5 95.5t239.5 35.5q280 0 425 -174.5t145 -486.5q0 -334 -154.5 -507.5t-435.5 -173.5q-132 0 -234 32.5t-192 92.5l48 161q84 -51 177.5 -83t204.5 -32q177 0 282 120.5t105 369.5q0 264 -100.5 387t-286.5 123q-123 0 -210.5 -31t-175.5 -90z" />
<glyph unicode="&#xe28;" horiz-adv-x="1433" d="M174 0v822q0 106 36.5 196.5t106 157.5t171.5 105t234 38q155 0 259 -65l112 133h226l-197 -234q75 -60 107 -153t32 -192v-808h-199v810q0 71 -21 134t-62.5 108t-106 70.5t-150.5 25.5q-174 0 -261.5 -89t-87.5 -235v-283q30 67 94.5 114t161.5 47h155v-174h-155 q-92 0 -159.5 -52t-96.5 -156v-320h-199z" />
<glyph unicode="&#xe29;" horiz-adv-x="1429" d="M174 477v819h199v-819q0 -153 79.5 -241t245.5 -88t246.5 88t80.5 241v203h-303v172h303v444h199v-444h196l-45 -172h-151v-203q0 -241 -134 -370.5t-392 -129.5q-256 0 -390 129.5t-134 370.5z" />
<glyph unicode="&#xe2a;" horiz-adv-x="1332" d="M84 364q0 203 143.5 318t432.5 115h300v29q0 71 -16 131.5t-54 104.5t-99.5 67.5t-149.5 23.5q-142 0 -253.5 -39.5t-195.5 -97.5l-64 141q37 31 93.5 61t125 52t144.5 35.5t150 13.5q148 0 262 -51l99 119h226l-182 -221q58 -62 85.5 -148t27.5 -190v-828h-199v625h-324 q-164 0 -259 -64t-95 -195q0 -113 67.5 -167.5t169.5 -54.5q48 0 102.5 10t96.5 29l32 -165q-51 -18 -118 -29.5t-135 -11.5q-88 0 -163 24.5t-130.5 71.5t-87.5 120.5t-32 170.5z" />
<glyph unicode="&#xe2b;" horiz-adv-x="1355" d="M179 0v1296h198v-510l616 510h268l-453 -375q125 -18 193 -104t108 -212l178 -605h-213l-171 588q-65 212 -236 218l-290 -239v-567h-198z" />
<glyph unicode="&#xe2c;" horiz-adv-x="1526" d="M179 0v1296h194v-691q0 -107 -3.5 -197t-18.5 -183h5q23 81 45.5 145.5t53.5 128.5l225 433h157l232 -430q35 -65 59.5 -137.5t42.5 -139.5h4q-11 93 -15.5 182.5t-4.5 197.5v365q0 127 -38.5 186t-153.5 59h-28l-28 83l301 438h203l-309 -424q64 -7 110.5 -38 t76.5 -77.5t45 -104.5t15 -120v-972h-212l-304 585q-28 53 -47.5 109t-23.5 81h-5q-4 -26 -24 -81.5t-48 -108.5l-294 -585h-212z" />
<glyph unicode="&#xe2d;" horiz-adv-x="1369" d="M115 442v70q0 120 64 175t172 55h209v-170h-185q-26 0 -43 -17.5t-17 -50.5v-62q0 -153 85.5 -223.5t261.5 -70.5q186 0 289.5 119t103.5 388q0 239 -103.5 366t-291.5 127q-153 0 -270 -43t-205 -109l-65 148q39 32 97.5 63t128 56.5t149 40.5t165.5 15 q291 0 442.5 -180.5t151.5 -493.5q0 -329 -151.5 -498.5t-435.5 -169.5q-281 0 -416.5 120.5t-135.5 344.5z" />
<glyph unicode="&#xe2e;" horiz-adv-x="1369" d="M115 442v70q0 120 64 175t172 55h209v-170h-185q-26 0 -43 -17.5t-17 -50.5v-62q0 -153 85.5 -223.5t261.5 -70.5q186 0 289.5 119t103.5 388q0 118 -29.5 209.5t-82.5 153.5t-125.5 96t-157.5 34q-153 0 -270 -43t-205 -109l-65 148q39 32 97.5 63t128 56.5t149 40.5 t165.5 15q157 0 279 -62l112 130h226l-199 -234q88 -89 132 -218t44 -290q0 -329 -151.5 -498.5t-435.5 -169.5q-281 0 -416.5 120.5t-135.5 344.5z" />
<glyph unicode="&#xe2f;" horiz-adv-x="1270" d="M93 1212v84h194v-86q0 -150 56.5 -226.5t181.5 -76.5q67 0 134.5 31.5t121.5 81t88 113.5t34 128v35h190v-1296h-199v967q-23 -48 -66.5 -89t-97.5 -69.5t-118 -43.5t-131 -15q-106 0 -180 34.5t-120.5 96t-67 146t-20.5 185.5z" />
<glyph unicode="&#xe30;" horiz-adv-x="693" d="M102 386v113h190v-94q0 -45 44 -45h243v-161h-269q-95 0 -151.5 41.5t-56.5 145.5zM102 1025v114h190v-95q0 -44 44 -44h243v-163h-269q-95 0 -151.5 42t-56.5 146z" />
<glyph unicode="&#xe31;" d="M-664 1680v93h189v-70q0 -69 66 -69h546v-162h-568q-233 0 -233 208z" />
<glyph unicode="&#xe32;" horiz-adv-x="1096" d="M23 1162q35 30 84.5 59t109 51t122.5 34.5t129 12.5q227 0 341 -128.5t114 -364.5v-826h-199v835q0 312 -275 313q-111 0 -208 -40.5t-164 -96.5z" />
<glyph unicode="&#xe33;" horiz-adv-x="1096" d="M-507 1671q0 49 17.5 90t49 73t72.5 50t90 18t90.5 -18t72.5 -50t50 -73t19 -90q0 -48 -19 -91t-50 -74t-72.5 -48.5t-90.5 -17.5t-90 17.5t-72.5 48.5t-49 74t-17.5 91zM-375 1674q0 -42 28.5 -72t68.5 -30q44 0 71.5 30t27.5 72q0 44 -27.5 71.5t-71.5 27.5 q-40 0 -68.5 -27.5t-28.5 -71.5zM23 1162q35 30 84.5 59t109 51t122.5 34.5t129 12.5q227 0 341 -128.5t114 -364.5v-826h-199v835q0 312 -275 313q-111 0 -208 -40.5t-164 -96.5z" />
<glyph unicode="&#xe34;" d="M-1166 1472v162h992v-162h-992z" />
<glyph unicode="&#xe35;" d="M-1166 1472v162h806v212h186v-374h-992z" />
<glyph unicode="&#xe36;" d="M-1166 1472v162h641q-3 11 -4 22t-1 22q0 88 59 147t144 59q89 0 148 -59t59 -147q0 -86 -57 -143.5t-141 -62.5h-9h-6h-833zM-405 1680q0 -32 23 -57.5t55 -25.5q35 0 58.5 25.5t23.5 57.5q0 35 -23.5 58.5t-58.5 23.5q-32 0 -55 -23.5t-23 -58.5z" />
<glyph unicode="&#xe37;" d="M-1166 1472v162h541v212h164v-217h123v217h164v-374h-992z" />
<glyph unicode="&#xe38;" d="M-507 -159h151q97 0 139.5 -46.5t42.5 -150.5v-249h-194v230q0 48 -49 48h-90v168z" />
<glyph unicode="&#xe39;" d="M-898 -159h313v-227q0 -54 32 -77t78 -23q47 0 79 23t32 77v227h190v-227q0 -118 -76.5 -180.5t-224.5 -62.5t-222 62.5t-74 180.5v64h-127v163z" />
<glyph unicode="&#xe3a;" d="M-437 -289q0 60 45 104t105 44q64 0 108.5 -44t44.5 -104t-44.5 -103t-108.5 -43q-60 0 -105 43t-45 103z" />
<glyph unicode="&#xe3f;" horiz-adv-x="1323" d="M172 0v1504h457v232h130v-234q213 -16 319.5 -124t106.5 -276q0 -67 -23 -118.5t-58 -89t-75.5 -63t-77.5 -40.5q54 -9 107 -34.5t96 -68.5t69.5 -104t26.5 -144q0 -186 -121.5 -305t-369.5 -133v-234h-130v232h-457zM360 174h269v518h-269v-518zM360 863h269v468h-269 v-468zM759 176q142 12 221.5 79t79.5 185q0 64 -22 109t-61.5 75.5t-95 45.5t-122.5 19v-513zM759 868q100 13 168.5 72.5t68.5 170.5q0 97 -64 150t-173 66v-459z" />
<glyph unicode="&#xe40;" horiz-adv-x="559" d="M181 0v1296h199v-1296h-199z" />
<glyph unicode="&#xe41;" horiz-adv-x="1007" d="M181 0v1296h194v-1296h-194zM634 0v1296h194v-1296h-194z" />
<glyph unicode="&#xe42;" horiz-adv-x="633" d="M-23 1902q38 64 94.5 114.5t127 83.5t152.5 49.5t170 16.5q141 0 226.5 -17.5t155.5 -44.5l-31 -176q-66 37 -155.5 53t-177.5 16q-111 0 -202.5 -25.5t-133.5 -78.5q116 -62 176.5 -195.5t60.5 -292.5v-1405h-199v1424q0 106 -33.5 184.5t-77.5 133t-87 83t-61 36.5z " />
<glyph unicode="&#xe43;" horiz-adv-x="633" d="M-86 1972q31 42 77 77.5t104 61t122.5 40.5t129.5 15q93 0 164.5 -26.5t120 -73t73 -108t24.5 -132.5q0 -86 -45.5 -157.5t-99.5 -142.5t-99 -149.5t-45 -177.5v-1199h-199v1248q0 97 44 174.5t96 144.5t96 129t44 130q0 75 -43 120.5t-145 45.5q-86 0 -180.5 -39 t-175.5 -120z" />
<glyph unicode="&#xe44;" horiz-adv-x="633" d="M-153 1967v164h826v-139q-110 -51 -171.5 -151.5t-61.5 -252.5v-1588h-199v1544q0 141 47.5 245t130.5 178h-572z" />
<glyph unicode="&#xe45;" horiz-adv-x="1096" d="M23 1162q35 30 84.5 59t109 51t122.5 34.5t129 12.5q227 0 341 -128.5t114 -364.5v-1289h-199v1298q0 312 -275 313q-111 0 -208 -40.5t-164 -96.5z" />
<glyph unicode="&#xe46;" horiz-adv-x="1292" d="M115 1011q0 69 27.5 123t71 91.5t101.5 62t120 35.5l185 -140l188 140q79 -4 138 -36.5t98 -83t57.5 -117t18.5 -137.5v-1412h-199v1426q0 178 -111 199l-190 -137l-194 137q-144 -33 -144 -151q0 -66 39 -103.5t107 -37.5q38 0 62 9l24 -150q-26 -9 -54.5 -12.5 t-54.5 -3.5q-56 0 -108 17.5t-92.5 53t-65 92t-24.5 135.5z" />
<glyph unicode="&#xe47;" d="M-1023 1710q0 51 17.5 97t52 83.5t90 59.5t132.5 22h474v-157h-467q-62 0 -87.5 -33t-25.5 -75q0 -41 25.5 -69t75.5 -28q40 0 69 30.5t35 62.5h111q9 -33 35.5 -51t78.5 -18h153v-162h-144q-60 0 -105 31.5t-69 79.5q-16 -48 -64.5 -84.5t-131.5 -36.5q-60 0 -107.5 21 t-80 56t-50 78.5t-17.5 92.5z" />
<glyph unicode="&#xe48;" d="M-360 1961v309h186v-309h-186z" />
<glyph unicode="&#xe49;" d="M-620 2150v162h187q60 0 95 -26.5t35 -81.5v-51q0 -33 32 -33h313v-159h-417q-40 0 -68.5 25t-28.5 67v60q0 18 -4.5 27.5t-25.5 9.5h-118z" />
<glyph unicode="&#xe4a;" d="M-801 2076q0 69 52.5 130.5t156.5 70.5l117 -106l109 108q201 -7 183 -208q46 21 60.5 57t14.5 109q0 31 -6 55t-18 48h185q7 -18 11.5 -40.5t6.5 -49.5q0 -60 -20 -112.5t-58.5 -91.5t-90.5 -62t-117 -23h-92l-20 38q21 20 22 56q0 33 -20 49t-48 18l-102 -81l-101 74 q-26 0 -41 -17.5t-15 -42.5q0 -18 4.5 -41.5t20.5 -57.5h-175q-11 33 -15 64t-4 56z" />
<glyph unicode="&#xe4b;" d="M-512 2096v139l165 -4l-7 143h173l-4 -143l165 4v-139l-165 6l4 -141h-173l7 141z" />
<glyph unicode="&#xe4c;" d="M-488 1762v73q0 100 58.5 158t177.5 58h208v-163h-150q-42 0 -64 -17.5t-22 -60.5v-48h-208z" />
<glyph unicode="&#xe4d;" d="M-507 1671q0 49 17.5 90t49 73t72.5 50t90 18t90.5 -18t72.5 -50t50 -73t19 -90q0 -48 -19 -91t-50 -74t-72.5 -48.5t-90.5 -17.5t-90 17.5t-72.5 48.5t-49 74t-17.5 91zM-375 1674q0 -42 28.5 -72t68.5 -30q44 0 71.5 30t27.5 72q0 44 -27.5 71.5t-71.5 27.5 q-40 0 -68.5 -27.5t-28.5 -71.5z" />
<glyph unicode="&#xe4e;" d="M-713 1667q0 86 58 142.5t185 43.5q-14 16 -20.5 37.5t-6.5 41.5q0 47 39 79t125 32h139l32 -129h-139q-18 0 -28.5 -12t-10.5 -30q0 -37 58 -65l-38 -97q-69 20 -135 21q-91 0 -91 -64q0 -67 100 -68q28 0 55 3.5t60 15.5v-116q-31 -18 -62 -26.5t-77 -8.5t-90.5 11.5 t-77.5 36t-54 61.5t-21 91z" />
<glyph unicode="&#xe4f;" horiz-adv-x="1263" d="M139 556q0 102 38 191.5t105 157t157.5 106t192.5 38.5q101 0 191.5 -38.5t158 -106t105 -157t37.5 -191.5t-37.5 -192.5t-105 -157.5t-158 -106.5t-191.5 -39.5q-102 0 -192.5 39.5t-157.5 106.5t-105 157t-38 193zM215 556q0 -88 32.5 -163t89 -132.5t133 -89.5 t162.5 -32t162 32t132.5 89.5t89.5 132.5t33 163q0 86 -33 161.5t-89.5 132.5t-132.5 89.5t-162 32.5t-162.5 -32.5t-133 -89.5t-89 -133t-32.5 -161zM345 553q0 59 23 113t61.5 92.5t90.5 60t109 21.5q60 0 112 -21.5t91.5 -61t61.5 -91.5t22 -110q0 -60 -23 -112.5 t-61.5 -90.5t-90.5 -60t-109 -22q-60 0 -112 22t-91.5 60t-61.5 90t-22 110zM466 553q0 -67 48.5 -115.5t117.5 -48.5q66 0 113.5 47.5t47.5 119.5q0 67 -47.5 114.5t-116.5 47.5q-66 0 -114.5 -49t-48.5 -116z" />
<glyph unicode="&#xe50;" horiz-adv-x="1475" d="M111 560q0 137 49.5 244.5t135.5 182.5t200 114.5t244 39.5q128 0 241.5 -39.5t199 -114.5t135 -183t49.5 -244t-49.5 -244t-135 -183t-200 -114t-244.5 -39q-128 0 -241 39t-199 114t-135.5 183t-49.5 244zM303 560q0 -97 35 -175t93.5 -131t137 -80.5t169.5 -27.5 q90 0 168.5 27.5t138 80.5t94 131t34.5 175q0 98 -34.5 175t-94 130.5t-138 81t-168.5 27.5q-91 0 -169.5 -27.5t-137 -81t-93.5 -130.5t-35 -175z" />
<glyph unicode="&#xe51;" horiz-adv-x="1482" d="M102 579q0 123 45 225.5t126 178t195.5 117t253.5 41.5q150 0 270.5 -48.5t205.5 -139t129.5 -216.5t44.5 -278q0 -162 -54.5 -294t-148 -227t-218.5 -147t-266 -52h-80l18 159h75q86 0 172 35.5t155.5 105t112 174.5t42.5 240q0 118 -32.5 215.5t-92 165t-145.5 104 t-192 36.5q-98 0 -176.5 -30t-136.5 -83t-89 -126t-31 -159q0 -161 87 -247t216 -86q53 0 105 12t91 27q2 -46 5.5 -79t7.5 -78q-51 -26 -101.5 -37t-107.5 -11q-100 0 -188 32t-153.5 95t-105 156t-39.5 219z" />
<glyph unicode="&#xe52;" horiz-adv-x="1730" d="M170 449v847h190v-847q0 -146 72 -214.5t188 -68.5h498q115 0 187 68.5t72 214.5v278q0 113 -36 168.5t-119 64.5l-185 -145l-200 150q-60 -11 -92 -67t-32 -116q0 -81 54.5 -133t128.5 -75l-51 -146q-143 26 -225.5 117t-82.5 232q0 155 84.5 249t223.5 115l192 -169 l175 169q190 -18 274 -126t84 -295v-271q0 -100 -29.5 -182t-85 -141t-137.5 -92.5t-189 -33.5h-520q-108 0 -190.5 33.5t-138 92.5t-83 141t-27.5 182z" />
<glyph unicode="&#xe53;" horiz-adv-x="1528" d="M130 558q0 128 23 235.5t71.5 184.5t120.5 120t169 43q115 0 174.5 -47.5t86.5 -117.5q33 69 94 117t173 48q83 0 144.5 -27.5t102 -78t59.5 -119t19 -150.5v-766h-192v768q0 38 -4.5 74.5t-19 66.5t-43 47.5t-76.5 17.5q-95 0 -133 -58.5t-38 -162.5v-336h-174v336 q0 104 -33.5 162.5t-119.5 58.5q-59 0 -100 -31t-66.5 -85.5t-35.5 -131t-10 -166.5q0 -201 57.5 -310t157.5 -109q30 0 58 6t52 15l38 -131q-65 -45 -155 -45q-95 0 -169 41.5t-125 117t-78.5 181t-27.5 232.5z" />
<glyph unicode="&#xe54;" horiz-adv-x="1413" d="M111 553q0 141 48.5 246.5t132 176t198.5 106.5t246 36h236q64 0 103.5 11.5t61.5 31t30 47.5t8 60v28h192v-28q0 -153 -89.5 -235t-270.5 -82h-269q-97 0 -177 -22t-137.5 -69.5t-89 -122.5t-31.5 -179q0 -95 25.5 -173t69.5 -132t103 -83t126 -29q69 0 115.5 19 t83.5 52q-55 82 -55 188q0 69 23 124t62.5 92t91.5 56.5t110 19.5h161l-36 -162h-81q-60 0 -103 -42t-43 -115q0 -100 67 -155.5t209 -55.5h117l-35 -162h-108q-116 0 -185.5 21t-126.5 81q-44 -53 -112.5 -89t-198.5 -36q-102 0 -189 40.5t-149 115.5t-98 181.5t-36 238.5z " />
<glyph unicode="&#xe55;" horiz-adv-x="1413" d="M111 553q0 203 97 333t258 188q-12 22 -18 47t-6 52q0 46 17.5 87t46 69.5t68.5 46t86 17.5q44 0 84 -17.5t69 -46t46.5 -69.5t17.5 -87q0 -33 -7 -55h102q64 0 103.5 11.5t61.5 31t30 47.5t8 60v28h192v-28q0 -153 -89.5 -235t-270.5 -82h-269q-97 0 -177 -22 t-137.5 -69.5t-89 -122.5t-31.5 -179q0 -95 25.5 -173t69.5 -132t103 -83t126 -29q69 0 115.5 19t83.5 52q-55 82 -55 188q0 69 23 124t62.5 92t91.5 56.5t110 19.5h161l-36 -162h-81q-60 0 -103 -42t-43 -115q0 -100 67 -155.5t209 -55.5h117l-35 -162h-108 q-116 0 -185.5 21t-126.5 81q-44 -53 -112.5 -89t-198.5 -36q-102 0 -189 40.5t-149 115.5t-98 181.5t-36 238.5zM574 1175q0 -35 25.5 -61t60.5 -26q37 0 61 26.5t24 60.5q0 40 -24.5 64t-60.5 24q-35 0 -60.5 -24t-25.5 -64z" />
<glyph unicode="&#xe56;" horiz-adv-x="1427" d="M23 1319h195l118 -361q60 84 171 133.5t243 49.5q120 0 224 -41.5t181 -118t119 -182t42 -232.5q0 -115 -35.5 -223t-111.5 -188.5t-194 -129.5t-283 -49q-124 0 -221.5 31.5t-167 86.5t-108 132.5t-38.5 172.5q0 71 30.5 134t64.5 100l144 -104q-26 -26 -40 -68.5 t-14 -77.5q0 -46 23.5 -89t67.5 -76.5t109 -54t147 -20.5q109 0 191.5 31t136.5 88t80.5 135.5t26.5 175.5q0 88 -27.5 162t-79.5 128.5t-123.5 84.5t-157.5 30q-144 0 -230.5 -52t-147.5 -138h-150z" />
<glyph unicode="&#xe57;" horiz-adv-x="1862" d="M130 558q0 128 25.5 235.5t74 184.5t120 120t164.5 43q102 0 149.5 -44t65.5 -112q33 67 95 111.5t164 44.5q62 0 111 -27.5t83.5 -78t52 -119t17.5 -150.5v-620h55q89 0 142 63.5t53 176.5v910h192v-879q0 -90 -24.5 -166.5t-73 -132.5t-121.5 -87t-170 -31h-241v768 q0 38 -3 74.5t-16 66.5t-38.5 47.5t-69.5 17.5q-60 0 -92.5 -43t-32.5 -109v-128h-169v128q0 62 -25.5 107t-87.5 45q-58 0 -98.5 -31t-65 -85.5t-34.5 -131t-10 -166.5q0 -201 62 -310t153 -109q30 0 59 6t51 15l38 -131q-35 -26 -72 -35.5t-83 -9.5q-95 0 -169 41.5 t-125 117t-78.5 181t-27.5 232.5z" />
<glyph unicode="&#xe58;" horiz-adv-x="1473" d="M157 364v283q0 98 36 182.5t101.5 149.5t159.5 102t213 37h280q64 0 103.5 11.5t62 31t30 47.5t7.5 60v28h192v-28q0 -153 -90 -235t-271 -82h-301q-164 0 -247.5 -89t-83.5 -228v-266q0 -81 50 -142.5t124 -61.5l259 251l276 -249q77 20 114.5 80.5t37.5 139.5 q0 93 -56.5 152t-137.5 71l60 144q66 -7 124.5 -40t100 -83.5t66 -115.5t24.5 -132q0 -81 -31 -152t-83.5 -123t-117 -83t-132.5 -33l-245 227l-215 -227q-181 4 -295.5 98t-114.5 275z" />
<glyph unicode="&#xe59;" horiz-adv-x="1446" d="M97 558q0 128 33.5 235.5t90.5 184.5t134.5 120t167.5 43q69 0 117.5 -13t85 -37t63 -56.5t46.5 -69.5q-7 93 46.5 134.5t123.5 41.5q74 0 121 -31.5t75 -91.5l49 278h174l-88 -463h-137q-20 57 -54 104.5t-94 47.5t-94 -48.5t-34 -108.5l283 -828h-190l-271 771 q-33 97 -76.5 149t-134.5 52q-55 0 -101.5 -30t-77.5 -85.5t-48.5 -131t-17.5 -165.5q0 -99 21 -178t53.5 -134.5t75 -84.5t89.5 -29q30 0 70 10.5t73 31.5l38 -132q-40 -28 -87.5 -46t-100.5 -18q-88 0 -164.5 37.5t-134.5 110.5t-91.5 182t-33.5 248z" />
<glyph unicode="&#xe5b;" horiz-adv-x="2639" d="M139 669q0 111 34.5 207t99.5 165.5t156.5 109t204.5 39.5q95 0 172.5 -37.5t133.5 -99.5t88 -142t34 -163h-157q-9 125 -83 208.5t-193 83.5q-79 0 -138.5 -33t-101.5 -85t-63 -118t-21 -135q0 -90 31.5 -163t87 -126t129.5 -82t160 -29q153 0 259 73t175.5 182.5 t104.5 240.5t42 249h104l168 -486l128 437h102l145 -415l114 364h87q23 -178 91 -280t181 -102q66 0 134 24l46 -121q-59 -18 -111.5 -26.5t-91.5 -8.5q-104 0 -178.5 53.5t-120.5 157.5l-100 -329h-87l-153 416l-142 -457h-89l-144 409q-32 -113 -93.5 -211.5t-148 -171.5 t-194.5 -114.5t-228 -41.5q-125 0 -230.5 43t-181.5 117t-119 176.5t-43 221.5z" />
<glyph unicode="&#x2000;" horiz-adv-x="1187" />
<glyph unicode="&#x2001;" horiz-adv-x="2374" />
<glyph unicode="&#x2002;" horiz-adv-x="1187" />
<glyph unicode="&#x2003;" horiz-adv-x="2374" />
<glyph unicode="&#x2004;" horiz-adv-x="791" />
<glyph unicode="&#x2005;" horiz-adv-x="593" />
<glyph unicode="&#x2006;" horiz-adv-x="395" />
<glyph unicode="&#x2007;" horiz-adv-x="395" />
<glyph unicode="&#x2008;" horiz-adv-x="296" />
<glyph unicode="&#x2009;" horiz-adv-x="474" />
<glyph unicode="&#x200a;" horiz-adv-x="131" />
<glyph unicode="&#x2010;" horiz-adv-x="749" d="M69 544v158h611v-158h-611z" />
<glyph unicode="&#x2011;" horiz-adv-x="749" d="M69 544v158h611v-158h-611z" />
<glyph unicode="&#x2012;" horiz-adv-x="749" d="M69 544v158h611v-158h-611z" />
<glyph unicode="&#x2013;" horiz-adv-x="1188" d="M69 521v134h1051v-134h-1051z" />
<glyph unicode="&#x2014;" horiz-adv-x="2299" d="M162 521v134h1976v-134h-1976z" />
<glyph unicode="&#x2018;" horiz-adv-x="499" d="M139 1185q0 44 12.5 98.5t32 110t45 106t53.5 90.5l82 -16q-18 -33 -36 -72.5t-29.5 -77t-18.5 -70.5t-7 -53q0 -31 23 -31q46 0 69.5 -29t23.5 -82t-31 -85t-91 -32q-128 0 -128 143z" />
<glyph unicode="&#x2019;" horiz-adv-x="499" d="M111 1472q0 54 31.5 86t91.5 32q128 0 126 -144q0 -44 -12 -98t-32 -109.5t-45.5 -108t-52.5 -88.5l-81 16q18 32 35.5 71t28.5 77.5t18.5 71t7.5 53.5q0 31 -24 30q-46 0 -69 28.5t-23 82.5z" />
<glyph unicode="&#x201a;" horiz-adv-x="499" d="M111 157q0 53 31.5 86t91.5 33q128 0 126 -144q0 -44 -12 -98t-32 -110t-45.5 -108t-52.5 -89l-81 16q18 33 35.5 72t28.5 77.5t18.5 70.5t7.5 53q0 30 -24 30q-46 0 -69 29t-23 82z" />
<glyph unicode="&#x201c;" horiz-adv-x="870" d="M139 1185q0 44 12.5 98.5t32 110t45 106t53.5 90.5l82 -16q-18 -33 -36 -72.5t-29.5 -77t-18.5 -70.5t-7 -53q0 -31 23 -31q46 0 69.5 -29t23.5 -82t-31 -85t-91 -32q-128 0 -128 143zM510 1185q0 44 12 98.5t32 110t45.5 106t53.5 90.5l80 -16q-18 -33 -35.5 -72.5 t-28.5 -77t-18.5 -70.5t-7.5 -53q0 -31 24 -31q46 0 69 -29t23 -82t-31.5 -85t-91.5 -32q-128 0 -126 143z" />
<glyph unicode="&#x201d;" horiz-adv-x="870" d="M111 1472q0 54 31.5 86t91.5 32q128 0 126 -144q0 -44 -12 -98t-32 -109.5t-45.5 -108t-52.5 -88.5l-81 16q18 32 35.5 71t28.5 77.5t18.5 71t7.5 53.5q0 31 -24 30q-46 0 -69 28.5t-23 82.5zM481 1472q0 54 31.5 86t92.5 32q127 0 126 -144q0 -44 -12.5 -98t-32 -109.5 t-45 -108t-53.5 -88.5l-81 16q18 32 35.5 71t29 77.5t18.5 71t7 53.5q0 31 -23 30q-46 0 -69.5 28.5t-23.5 82.5z" />
<glyph unicode="&#x201e;" horiz-adv-x="870" d="M111 157q0 53 31.5 86t91.5 33q128 0 126 -144q0 -44 -12 -98t-32 -110t-45.5 -108t-52.5 -89l-81 16q18 33 35.5 72t28.5 77.5t18.5 70.5t7.5 53q0 30 -24 30q-46 0 -69 29t-23 82zM481 157q0 53 31.5 86t92.5 33q127 0 126 -144q0 -44 -12.5 -98t-32 -110t-45 -108 t-53.5 -89l-81 16q18 33 35.5 72t29 77.5t18.5 70.5t7 53q0 30 -23 30q-46 0 -69.5 29t-23.5 82z" />
<glyph unicode="&#x2020;" horiz-adv-x="1254" d="M139 960v158h393v441h190v-441h393v-158h-393v-960h-190v960h-393z" />
<glyph unicode="&#x2021;" horiz-adv-x="1254" d="M139 327v157h393v476h-393v158h393v441h190v-441h393v-158h-393v-476h393v-157h-393v-442h-190v442h-393z" />
<glyph unicode="&#x2022;" horiz-adv-x="716" d="M115 791q0 99 60.5 170t182.5 71q120 0 181.5 -69t61.5 -166q0 -98 -61 -171t-184 -73q-120 0 -180.5 70.5t-60.5 167.5z" />
<glyph unicode="&#x2026;" horiz-adv-x="1679" d="M139 115q0 58 36.5 98.5t104.5 40.5q67 0 104 -40t37 -99q0 -57 -37 -97.5t-104 -40.5q-66 0 -103.5 40.5t-37.5 97.5zM698 115q0 58 37.5 98.5t104.5 40.5q66 0 103.5 -40t37.5 -99q0 -57 -37 -97.5t-104 -40.5t-104.5 40.5t-37.5 97.5zM1259 115q0 58 37 98.5t104 40.5 t104 -40t37 -99q0 -57 -37 -97.5t-104 -40.5t-104 40.5t-37 97.5z" />
<glyph unicode="&#x202f;" horiz-adv-x="474" />
<glyph unicode="&#x2030;" horiz-adv-x="2610" d="M97 1120q0 83 21 157t63 129.5t103 88.5t142 33q79 0 140 -33t103 -88.5t64 -129.5t22 -157q0 -84 -22 -158t-64 -129.5t-103.5 -87.5t-139.5 -32q-81 0 -142 32t-103 87.5t-63 129.5t-21 158zM254 1120q0 -53 9.5 -104t30.5 -90.5t53.5 -62.5t78.5 -23t78.5 24 t53.5 62.5t30 88t9 103.5q0 53 -9 103.5t-30 90t-53.5 64t-78.5 24.5t-78.5 -24.5t-53.5 -64t-30.5 -90t-9.5 -101.5zM393 0l848 1528h161l-846 -1528h-163zM1042 384q0 84 20.5 158t62 129.5t103 87.5t142.5 32q79 0 140.5 -32t102.5 -87.5t63 -129.5t22 -158 q0 -83 -22 -157t-63 -129.5t-102.5 -88t-140.5 -32.5q-82 0 -143 32.5t-102.5 88t-62 129.5t-20.5 157zM1199 384q0 -53 9 -104t30 -90.5t53 -62.5t79 -23q46 0 78.5 24.5t53.5 62.5t30 88t9 103t-9 104t-30 90.5t-53.5 63.5t-78.5 24q-47 0 -79 -24t-53 -63.5t-30 -90.5 t-9 -102zM1855 384q0 84 21 158t63 129.5t103.5 87.5t141.5 32q79 0 140 -32t103 -87.5t64 -129.5t22 -158q0 -83 -22 -157t-64 -129.5t-103 -88t-140 -32.5q-81 0 -142 32.5t-103 88t-63 129.5t-21 157zM2014 384q0 -53 9 -104t30 -90.5t53 -62.5t78 -23q47 0 79.5 24.5 t53 62.5t30 88t9.5 103t-9.5 104t-30 90.5t-53 63.5t-79.5 24q-46 0 -78 -24t-53 -63.5t-30 -90.5t-9 -102z" />
<glyph unicode="&#x2039;" horiz-adv-x="640" d="M93 560l298 416h157l-298 -416l298 -416h-157z" />
<glyph unicode="&#x203a;" horiz-adv-x="638" d="M93 144l298 416l-298 416h154l299 -416l-299 -416h-154z" />
<glyph unicode="&#x2044;" horiz-adv-x="1007" d="M-23 0l847 1528h161l-846 -1528h-162z" />
<glyph unicode="&#x205f;" horiz-adv-x="593" />
<glyph unicode="&#x20ac;" horiz-adv-x="1323" d="M106 558l35 113h146q-5 26 -5 54v55v41t3 42h-179l35 113h155q20 137 72.5 248.5t129 191t176 123.5t216.5 44q118 0 191.5 -32.5t135.5 -88.5l-51 -166q-53 49 -117 77.5t-146 28.5q-162 0 -267.5 -109.5t-140.5 -316.5h516l-35 -113h-492q-3 -20 -3 -41v-42v-57.5 t5 -51.5h525l-35 -113h-474q39 -194 146 -297.5t264 -103.5q84 0 151.5 29t121.5 77l51 -166q-62 -55 -140 -87.5t-195 -32.5q-116 0 -214.5 41.5t-176 117.5t-130.5 183t-79 239h-195z" />
<glyph unicode="&#x2113;" horiz-adv-x="923" d="M23 407q64 39 124.5 81t119.5 93v507q0 276 83 400.5t224 124.5q125 0 202.5 -89t77.5 -274q0 -215 -99.5 -392.5t-293.5 -323.5v-166q0 -125 31 -171.5t113 -46.5q62 0 117 24l49 -154q-33 -18 -75.5 -29t-96.5 -11q-100 0 -163 24t-101.5 74t-53 122.5t-14.5 170.5v55 l-177 -114zM461 713q115 104 161.5 245t46.5 292q0 120 -23 173.5t-70 53.5q-28 0 -50 -17.5t-36.5 -61.5t-21.5 -119.5t-7 -190.5v-375z" />
<glyph unicode="&#x2122;" horiz-adv-x="1800" d="M46 1446v113h658v-113l-264 3v-766h-135v766zM845 683v876h155l206 -464q16 -35 31 -74.5t26 -78.5h3q11 40 26 79t31 74l207 464h155v-876h-132v529q0 40 3 72t6 63h-5q-4 -18 -15.5 -49.5t-30.5 -73.5l-178 -400h-136l-179 400q-18 42 -30 73.5t-16 49.5h-5 q3 -31 6 -63t3 -72v-529h-131z" />
<glyph unicode="&#x2126;" horiz-adv-x="1740" d="M162 884q0 159 49.5 288t141 220.5t222.5 141t295 49.5q162 0 294 -49.5t223.5 -141t141.5 -220t50 -288.5q0 -133 -38.5 -243.5t-94 -200t-118 -156t-113.5 -110.5h278v-174h-508v128q56 44 124 114t128.5 163.5t101.5 206t41 238.5q0 261 -135.5 404.5t-369.5 143.5 q-241 0 -378 -143.5t-137 -404.5q0 -126 41 -238.5t101.5 -206t128 -163.5t124.5 -114v-128h-508v174h278q-50 44 -113 110.5t-118.5 156t-93.5 201t-38 242.5z" />
<glyph unicode="&#x212e;" horiz-adv-x="1892" d="M84 748q0 170 68 312.5t184.5 245.5t274 161.5t336.5 58.5q178 0 335.5 -57.5t274.5 -159t185 -240.5t68 -303v-51h-1412v-423q20 -26 72.5 -69.5t125.5 -85.5t163.5 -73t185.5 -31q99 0 188 27.5t160.5 66.5t123.5 84.5t78 80.5h166q-132 -160 -321.5 -241.5 t-392.5 -81.5q-179 0 -336.5 57.5t-274 160t-184.5 246t-68 315.5zM398 780h1097v421q-26 35 -78 80.5t-125 85.5t-160.5 66.5t-186.5 26.5q-95 0 -185.5 -31t-163.5 -73t-125 -86t-73 -69v-421z" />
<glyph unicode="&#x2202;" horiz-adv-x="1387" d="M93 375q0 115 44 227.5t123.5 200t191 141.5t242.5 54q79 0 139.5 -16.5t105 -42t76 -56.5t49.5 -59q29 117 29 210q0 159 -78 243t-224 84q-88 0 -158 -19t-136 -55l-22 153q62 39 155.5 63.5t181.5 24.5q232 0 353.5 -132.5t121.5 -363.5q0 -104 -22 -223.5t-66 -236.5 t-109 -224t-149 -190t-187.5 -132t-223.5 -49q-227 0 -332 107.5t-105 290.5zM294 382q0 -113 61.5 -175.5t172.5 -62.5q74 0 149.5 34t141 102.5t119 166t85.5 222.5q-47 64 -130.5 111.5t-200.5 47.5q-93 0 -167 -37.5t-125 -100.5t-78.5 -142.5t-27.5 -165.5z" />
<glyph unicode="&#x2206;" horiz-adv-x="1446" d="M69 0l616 1559h74l618 -1559h-1308zM310 155h817l-405 1083z" />
<glyph unicode="&#x220f;" horiz-adv-x="1420" d="M208 -111v1670h1004v-1670h-198v1486h-607v-1486h-199z" />
<glyph unicode="&#x2211;" horiz-adv-x="1263" d="M93 -26l583 755l-539 735v95h990v-143h-754l502 -683l-537 -700h833v-144h-1078v85z" />
<glyph unicode="&#x2212;" horiz-adv-x="1323" d="M183 579v157h958v-157h-958z" />
<glyph unicode="&#x221a;" horiz-adv-x="1202" d="M46 815v150h308l225 -768l386 1362h170l-459 -1587h-186l-254 843h-190z" />
<glyph unicode="&#x221e;" horiz-adv-x="1771" d="M125 715q0 77 27 138t75.5 106.5t114 69.5t144.5 24q69 0 127 -18.5t108 -48.5t90.5 -70.5t72.5 -84.5h4q26 35 64.5 74.5t88 72.5t109.5 54t135 21q79 0 144.5 -24t114 -68.5t76.5 -105.5t28 -135q0 -75 -25.5 -137t-72 -108.5t-112.5 -73t-149 -26.5 q-130 0 -232.5 63.5t-168.5 158.5h-4q-69 -89 -167.5 -155.5t-232.5 -66.5q-77 0 -142.5 24.5t-114 68.5t-75.5 107t-27 140zM287 718q0 -95 59 -151.5t151 -56.5q95 0 175.5 59.5t137.5 145.5q-62 93 -143.5 147t-173.5 54q-102 0 -154 -58.5t-52 -139.5zM963 715 q60 -97 140 -151t174 -54q106 0 157.5 63t51.5 145q0 81 -51 139.5t-160 58.5q-98 0 -170.5 -53t-141.5 -148z" />
<glyph unicode="&#x222b;" horiz-adv-x="998" d="M93 -84l48 153q56 -23 118 -23q88 0 115.5 58t27.5 183v881q0 98 15.5 174t54 131t101.5 82.5t163 27.5q53 0 96 -12t75 -30l-48 -152q-56 22 -119 22q-88 0 -115.5 -57.5t-27.5 -182.5v-882q0 -97 -15 -173t-53.5 -130.5t-101.5 -82.5t-164 -28q-53 0 -95.5 11.5 t-74.5 29.5z" />
<glyph unicode="&#x2248;" horiz-adv-x="1323" d="M115 405q18 39 48.5 79.5t70 74t89.5 54.5t110 21q86 0 144.5 -29t108.5 -65t96 -65t106 -29q79 0 132.5 49t92.5 110l95 -101q-46 -95 -127 -163t-187 -68q-86 0 -146.5 30t-111.5 64.5t-97 65t-102 30.5q-88 0 -137.5 -48.5t-89.5 -111.5zM115 819q18 40 48.5 80t70 74 t89.5 55t110 21q86 0 144.5 -29t108.5 -65t96 -65t106 -29q79 0 132.5 48.5t92.5 108.5l95 -99q-46 -95 -127 -163.5t-187 -68.5q-86 0 -146.5 30.5t-111.5 65t-97 64.5t-102 30q-88 0 -137.5 -48.5t-89.5 -110.5z" />
<glyph unicode="&#x2260;" horiz-adv-x="1323" d="M194 371v157h338l104 258h-442v159h504l159 393h154l-157 -393h275v-159h-338l-104 -258h442v-157h-504l-146 -371h-155l146 371h-276z" />
<glyph unicode="&#x2264;" horiz-adv-x="1323" d="M153 0v134h986v-134h-986zM153 709v128l986 535v-184l-790 -415l790 -415v-184z" />
<glyph unicode="&#x2265;" horiz-adv-x="1323" d="M185 0v134h986v-134h-986zM185 174v184l789 415l-789 415v184l986 -535v-128z" />
<glyph unicode="&#x25ca;" horiz-adv-x="1360" d="M93 789l530 794h115l530 -792l-530 -791h-115zM280 791l400 -590l398 590l-398 589z" />
<glyph unicode="&#xe000;" horiz-adv-x="1122" d="M0 0v1122h1122v-1122h-1122z" />
<glyph unicode="&#xf700;" horiz-adv-x="1254" d="M33 1137q97 81 228.5 131.5t277.5 50.5q172 0 298 -67l117 135h226l-201 -241q159 -172 160 -457q0 -152 -42 -278t-118 -217.5t-181.5 -142.5t-232.5 -51h-163l-124 521q-7 30 -21 40.5t-39 10.5h-88v170h104q97 0 150 -36.5t79 -145.5l90 -388h30q69 0 133 34.5 t113.5 100.5t79.5 163t30 222q0 238 -103 347t-295 109q-132 0 -247 -47.5t-199 -119.5z" />
<glyph unicode="&#xf701;" d="M-1365 1472v162h877v-162h-877z" />
<glyph unicode="&#xf702;" d="M-1365 1472v162h689v212h188v-374h-877z" />
<glyph unicode="&#xf703;" d="M-1365 1472v162h525q-2 11 -3.5 22t-1.5 22q0 88 59 147t145 59q88 0 147 -59t59 -147q0 -86 -56.5 -143.5t-140.5 -62.5h-9h-6h-718zM-720 1680q0 -32 23.5 -57.5t55.5 -25.5q35 0 58 25.5t23 57.5q0 35 -23.5 58.5t-57.5 23.5q-32 0 -55.5 -23.5t-23.5 -58.5z" />
<glyph unicode="&#xf704;" d="M-1365 1472v162h426v212h164v-217h122v217h165v-374h-877z" />
<glyph unicode="&#xf705;" d="M-822 1472v383h195v-383h-195z" />
<glyph unicode="&#xf706;" d="M-1067 1685v161h190q65 0 103 -27.5t38 -87.5v-57q0 -19 8 -29.5t34 -10.5h358v-162h-467q-40 0 -70 28t-30 74v64q0 26 -6.5 36.5t-35.5 10.5h-122z" />
<glyph unicode="&#xf707;" d="M-1340 1599q0 75 57 140.5t168 77.5l117 -121l114 123q218 -11 197 -236q53 31 63 77.5t10 101.5q0 46 -5.5 72.5t-16.5 51.5h192q7 -20 12.5 -45.5t5.5 -74.5q0 -55 -20 -109t-55.5 -94t-89.5 -65.5t-124 -25.5h-116l-19 39q23 26 24 65q0 77 -72 78l-98 -90l-94 84 q-33 0 -53.5 -22.5t-20.5 -49.5q0 -26 3.5 -49t19.5 -60h-178q-11 30 -16 67.5t-5 64.5z" />
<glyph unicode="&#xf708;" d="M-1025 1641v143l190 -4l-7 174h184l-4 -174l192 4v-143l-192 4l4 -173h-184l7 173z" />
<glyph unicode="&#xf709;" d="M-967 1467v77q0 110 63.5 171.5t192.5 61.5h225v-169h-159q-51 0 -77 -21t-26 -72v-48h-219z" />
<glyph unicode="&#xf70a;" d="M-368 1472v383h194v-383h-194z" />
<glyph unicode="&#xf70b;" d="M-706 1685v161h190q64 0 102.5 -27.5t38.5 -87.5v-57q0 -19 8.5 -29.5t33.5 -10.5h313v-162h-422q-39 0 -69 28t-30 74v64q0 26 -7.5 36.5t-34.5 10.5h-123z" />
<glyph unicode="&#xf70c;" d="M-932 1599q0 75 56.5 140.5t166.5 77.5l130 -121l126 123q218 -11 196 -236q54 31 76 77.5t22 101.5q0 46 -6.5 72.5t-17.5 51.5h192q7 -20 13 -45.5t6 -74.5q0 -55 -23 -109t-63.5 -94t-98.5 -65.5t-128 -25.5h-115l-19 39q22 26 23 65q0 77 -72 78l-108 -90l-107 84 q-32 0 -53 -22.5t-21 -49.5q0 -26 3.5 -49t20.5 -60h-179q-11 30 -15.5 67.5t-4.5 64.5z" />
<glyph unicode="&#xf70d;" d="M-548 1641v143l190 -4l-8 174h185l-4 -174l192 4v-143l-192 4l4 -173h-185l8 173z" />
<glyph unicode="&#xf70e;" d="M-537 1467v77q0 110 64 171.5t193 61.5h225v-169h-160q-51 0 -77 -21t-26 -72v-48h-219z" />
<glyph unicode="&#xf70f;" horiz-adv-x="2133" d="M111 930q18 75 68 145.5t123 124.5t167 86.5t200 32.5q128 0 222 -37t157 -104t94 -158.5t31 -202.5v-373q0 -143 69.5 -219.5t221.5 -76.5q158 0 228 76.5t70 219.5v852h199v-852q0 -123 -36.5 -211.5t-101.5 -145t-154.5 -83.5t-201.5 -27q-111 0 -201.5 27t-155 83.5 t-100.5 145.5t-36 211v373q0 166 -79.5 248.5t-225.5 82.5q-118 0 -214.5 -57t-132.5 -149l175 -162q-62 -33 -92 -80t-30 -121v-352q0 -28 10.5 -44.5t42.5 -16.5h125v-166h-178q-95 0 -147 59t-52 149v342q0 67 32.5 127.5t92.5 90.5z" />
<glyph unicode="&#xf710;" d="M-988 1680v93h189v-70q0 -69 66 -69h523v-162h-545q-234 0 -233 208z" />
<glyph unicode="&#xf711;" d="M-979 1671q0 49 17 90t49 73t73 50t90 18q48 0 90 -18t73 -50t49.5 -73t18.5 -90q0 -48 -18.5 -91t-49.5 -74t-73 -48.5t-90 -17.5q-49 0 -90 17.5t-73 48.5t-49 74t-17 91zM-848 1674q0 -42 29 -72t69 -30q44 0 72 30t28 72q0 44 -28 71.5t-72 27.5q-40 0 -69 -27.5 t-29 -71.5z" />
<glyph unicode="&#xf712;" d="M-1243 1710q0 51 17.5 97t52 83.5t90.5 59.5t132 22h474v-157h-468q-62 0 -87.5 -33t-25.5 -75q0 -41 25.5 -69t76.5 -28q40 0 68.5 30.5t35.5 62.5h112q9 -33 35.5 -51t77.5 -18h152v-162h-143q-60 0 -105 31.5t-68 79.5q-16 -48 -65 -84.5t-132 -36.5q-60 0 -108 21 t-80 56t-49.5 78.5t-17.5 92.5z" />
<glyph unicode="&#xf713;" d="M-672 1961v309h186v-309h-186z" />
<glyph unicode="&#xf714;" d="M-932 2150v162h187q60 0 95 -26.5t35 -81.5v-51q0 -33 32 -33h313v-159h-417q-40 0 -68.5 25t-28.5 67v60q0 18 -4.5 27.5t-25.5 9.5h-118z" />
<glyph unicode="&#xf715;" d="M-1113 2076q0 69 52.5 130.5t156.5 70.5l117 -106l109 108q201 -7 183 -208q46 21 60.5 57t14.5 109q0 31 -6 55t-18 48h185q7 -18 11.5 -40.5t6.5 -49.5q0 -60 -20 -112.5t-58.5 -91.5t-90.5 -62t-117 -23h-92l-20 38q21 20 22 56q0 33 -20 49t-48 18l-102 -81l-101 74 q-26 0 -41 -17.5t-15 -42.5q0 -18 4.5 -41.5t20.5 -57.5h-175q-11 33 -15 64t-4 56z" />
<glyph unicode="&#xf716;" d="M-824 2096v139l165 -4l-7 143h173l-4 -143l165 4v-139l-165 6l4 -141h-173l7 141z" />
<glyph unicode="&#xf717;" d="M-800 1762v73q0 100 58.5 158t177.5 58h208v-163h-150q-42 0 -64 -17.5t-22 -60.5v-48h-208z" />
<glyph unicode="&#xf718;" d="M-507 -541h151q97 0 139.5 -46.5t42.5 -150.5v-225h-194v206q0 48 -49 48h-90v168z" />
<glyph unicode="&#xf719;" d="M-898 -541h313v-204q0 -53 32 -76.5t78 -23.5q47 0 79 23t32 77v204h190v-204q0 -117 -76.5 -180t-224.5 -63t-222 62.5t-74 180.5v41h-127v163z" />
<glyph unicode="&#xf71a;" d="M-437 -678q0 60 45 104t105 44q64 0 108.5 -44t44.5 -104t-44.5 -103t-108.5 -43q-60 0 -105 43t-45 103z" />
<glyph unicode="&#xf71b;" horiz-adv-x="1420" d="M69 0v166h101q32 0 42.5 16.5t10.5 44.5v307q0 67 32 127.5t92 91.5l-213 177q19 75 71 145.5t128 124.5t175 86.5t210 32.5q132 0 231.5 -37t165 -104t99.5 -158.5t34 -202.5v-1234h-248q-58 53 -132.5 90.5t-169.5 37.5q-115 0 -192.5 -33.5t-154.5 -94.5l-53 154 q67 60 162.5 101.5t212.5 41.5q111 0 213 -49t163 -111v1097q0 166 -86 248.5t-245 82.5q-133 0 -234.5 -57t-138.5 -149l199 -178q-63 -33 -93 -80.5t-30 -120.5v-355q0 -90 -51.5 -150t-146.5 -58h-154z" />
<glyph unicode="&#xf71c;" horiz-adv-x="1420" d="M69 0v166h101q32 0 42.5 16.5t10.5 44.5v307q0 67 32 127.5t92 91.5l-213 177q19 75 71 145.5t128 124.5t175 86.5t210 32.5q132 0 231.5 -37t165 -104t99.5 -158.5t34 -202.5v-1234h-190l-276 165q-37 -81 -118 -130t-171 -49q-84 0 -161.5 20t-125.5 53l51 168 q48 -33 111 -58t113 -25q98 0 170.5 66t90.5 163l307 -183v1044q0 166 -86 248.5t-245 82.5q-133 0 -234.5 -57t-138.5 -149l199 -178q-63 -33 -93 -80.5t-30 -120.5v-355q0 -90 -51.5 -150t-146.5 -58h-154z" />
<glyph unicode="&#xf71d;" horiz-adv-x="1526" d="M179 0v1296h194v-691q0 -107 -3.5 -197t-18.5 -183h5q23 81 45.5 145.5t53.5 128.5l225 433h157l232 -430q35 -65 59.5 -137.5t42.5 -139.5h4q-11 93 -15.5 182.5t-4.5 197.5v210q0 97 -40.5 139t-107.5 42h-44l-28 82l245 309h218l-261 -294q104 -14 158 -89.5 t54 -186.5v-817h-212l-304 585q-28 53 -47.5 109t-23.5 81h-5q-4 -26 -24 -81.5t-48 -108.5l-294 -585h-212z" />
<glyph horiz-adv-x="1096" d="M-979 1671q0 49 17 90t49 73t73 50t90 18q48 0 90 -18t73 -50t49.5 -73t18.5 -90q0 -48 -18.5 -91t-49.5 -74t-73 -48.5t-90 -17.5q-49 0 -90 17.5t-73 48.5t-49 74t-17 91zM-848 1674q0 -42 29 -72t69 -30q44 0 72 30t28 72q0 44 -28 71.5t-72 27.5q-40 0 -69 -27.5 t-29 -71.5zM23 1162q35 30 84.5 59t109 51t122.5 34.5t129 12.5q227 0 341 -128.5t114 -364.5v-826h-199v835q0 312 -275 313q-111 0 -208 -40.5t-164 -96.5z" />
<glyph d="M-967 1667q0 86 57.5 142.5t185.5 43.5q-14 16 -21.5 37.5t-7.5 41.5q0 47 40 79t125 32h139l32 -129h-139q-18 0 -28 -12t-10 -30q0 -37 57 -65l-37 -97q-69 20 -137 21q-90 0 -90 -64q0 -67 99 -68q29 0 56.5 3.5t60.5 15.5v-116q-31 -18 -62 -26.5t-77 -8.5 q-47 0 -91 11.5t-77 36t-54 61.5t-21 91z" />
</font>
</defs>
</svg>
